%TF.GenerationSoftware,KiCad,Pcbnew,(6.0.6)*%
%TF.CreationDate,2022-10-05T22:33:55-05:00*%
%TF.ProjectId,Halloween_Ghost_v1,48616c6c-6f77-4656-956e-5f47686f7374,rev?*%
%TF.SameCoordinates,Original*%
%TF.FileFunction,Paste,Top*%
%TF.FilePolarity,Positive*%
%FSLAX46Y46*%
G04 Gerber Fmt 4.6, Leading zero omitted, Abs format (unit mm)*
G04 Created by KiCad (PCBNEW (6.0.6)) date 2022-10-05 22:33:55*
%MOMM*%
%LPD*%
G01*
G04 APERTURE LIST*
G04 Aperture macros list*
%AMRoundRect*
0 Rectangle with rounded corners*
0 $1 Rounding radius*
0 $2 $3 $4 $5 $6 $7 $8 $9 X,Y pos of 4 corners*
0 Add a 4 corners polygon primitive as box body*
4,1,4,$2,$3,$4,$5,$6,$7,$8,$9,$2,$3,0*
0 Add four circle primitives for the rounded corners*
1,1,$1+$1,$2,$3*
1,1,$1+$1,$4,$5*
1,1,$1+$1,$6,$7*
1,1,$1+$1,$8,$9*
0 Add four rect primitives between the rounded corners*
20,1,$1+$1,$2,$3,$4,$5,0*
20,1,$1+$1,$4,$5,$6,$7,0*
20,1,$1+$1,$6,$7,$8,$9,0*
20,1,$1+$1,$8,$9,$2,$3,0*%
%AMRotRect*
0 Rectangle, with rotation*
0 The origin of the aperture is its center*
0 $1 length*
0 $2 width*
0 $3 Rotation angle, in degrees counterclockwise*
0 Add horizontal line*
21,1,$1,$2,0,0,$3*%
G04 Aperture macros list end*
%ADD10RoundRect,0.150000X-0.150000X0.512500X-0.150000X-0.512500X0.150000X-0.512500X0.150000X0.512500X0*%
%ADD11RoundRect,0.135000X0.135000X0.185000X-0.135000X0.185000X-0.135000X-0.185000X0.135000X-0.185000X0*%
%ADD12RoundRect,0.140000X-0.170000X0.140000X-0.170000X-0.140000X0.170000X-0.140000X0.170000X0.140000X0*%
%ADD13RoundRect,0.225000X-0.225000X-0.250000X0.225000X-0.250000X0.225000X0.250000X-0.225000X0.250000X0*%
%ADD14RoundRect,0.135000X-0.135000X-0.185000X0.135000X-0.185000X0.135000X0.185000X-0.135000X0.185000X0*%
%ADD15R,0.450000X0.600000*%
%ADD16R,1.500000X0.900000*%
%ADD17R,0.900000X0.900000*%
%ADD18C,0.250000*%
%ADD19RoundRect,0.135000X0.185000X-0.135000X0.185000X0.135000X-0.185000X0.135000X-0.185000X-0.135000X0*%
%ADD20RoundRect,0.225000X-0.250000X0.225000X-0.250000X-0.225000X0.250000X-0.225000X0.250000X0.225000X0*%
%ADD21RoundRect,0.135000X-0.185000X0.135000X-0.185000X-0.135000X0.185000X-0.135000X0.185000X0.135000X0*%
%ADD22RotRect,1.500000X1.000000X60.000000*%
%ADD23RoundRect,0.140000X-0.140000X-0.170000X0.140000X-0.170000X0.140000X0.170000X-0.140000X0.170000X0*%
%ADD24RoundRect,0.140000X0.140000X0.170000X-0.140000X0.170000X-0.140000X-0.170000X0.140000X-0.170000X0*%
%ADD25R,0.300000X0.750000*%
%ADD26R,1.300000X0.900000*%
%ADD27RoundRect,0.140000X0.170000X-0.140000X0.170000X0.140000X-0.170000X0.140000X-0.170000X-0.140000X0*%
%ADD28RoundRect,0.600000X1.119615X-0.739230X-0.080385X1.339230X-1.119615X0.739230X0.080385X-1.339230X0*%
%ADD29RoundRect,0.600000X0.600000X-1.200000X0.600000X1.200000X-0.600000X1.200000X-0.600000X-1.200000X0*%
%ADD30RoundRect,0.250000X-0.275000X-0.275000X0.275000X-0.275000X0.275000X0.275000X-0.275000X0.275000X0*%
%ADD31RoundRect,0.062500X-0.350000X-0.062500X0.350000X-0.062500X0.350000X0.062500X-0.350000X0.062500X0*%
%ADD32RoundRect,0.062500X-0.062500X-0.350000X0.062500X-0.350000X0.062500X0.350000X-0.062500X0.350000X0*%
%ADD33RoundRect,0.225000X0.250000X-0.225000X0.250000X0.225000X-0.250000X0.225000X-0.250000X-0.225000X0*%
%ADD34R,0.650000X0.400000*%
%ADD35RoundRect,0.150000X-0.150000X0.587500X-0.150000X-0.587500X0.150000X-0.587500X0.150000X0.587500X0*%
%ADD36RotRect,1.500000X1.000000X300.000000*%
%ADD37RoundRect,0.200000X0.700000X-0.200000X0.700000X0.200000X-0.700000X0.200000X-0.700000X-0.200000X0*%
%ADD38RoundRect,0.600000X-0.600000X1.200000X-0.600000X-1.200000X0.600000X-1.200000X0.600000X1.200000X0*%
%ADD39RoundRect,0.600000X-0.080385X-1.339230X1.119615X0.739230X0.080385X1.339230X-1.119615X-0.739230X0*%
%ADD40RoundRect,0.135000X0.092715X-0.209413X0.227715X0.024413X-0.092715X0.209413X-0.227715X-0.024413X0*%
%ADD41R,1.000000X1.800000*%
%ADD42RoundRect,0.135000X-0.092715X0.209413X-0.227715X-0.024413X0.092715X-0.209413X0.227715X0.024413X0*%
%ADD43RotRect,1.500000X1.000000X250.000000*%
%ADD44RoundRect,0.135000X-0.227715X0.024413X-0.092715X-0.209413X0.227715X-0.024413X0.092715X0.209413X0*%
%ADD45R,1.500000X1.000000*%
%ADD46RoundRect,0.140000X-0.217224X0.036244X-0.077224X-0.206244X0.217224X-0.036244X0.077224X0.206244X0*%
%ADD47RoundRect,0.225000X0.225000X0.250000X-0.225000X0.250000X-0.225000X-0.250000X0.225000X-0.250000X0*%
%ADD48RotRect,1.500000X1.000000X110.000000*%
%ADD49R,0.300000X1.150000*%
%ADD50R,2.180000X2.000000*%
%ADD51RoundRect,0.150000X-0.450000X0.150000X-0.450000X-0.150000X0.450000X-0.150000X0.450000X0.150000X0*%
%ADD52RoundRect,0.140000X0.077224X-0.206244X0.217224X0.036244X-0.077224X0.206244X-0.217224X-0.036244X0*%
%ADD53RoundRect,0.135000X0.190132X0.127670X-0.063585X0.220016X-0.190132X-0.127670X0.063585X-0.220016X0*%
%ADD54R,7.000000X6.500000*%
G04 APERTURE END LIST*
D10*
X135350000Y-118862500D03*
X134400000Y-118862500D03*
X133450000Y-118862500D03*
X133450000Y-121137500D03*
X134400000Y-121137500D03*
X135350000Y-121137500D03*
D11*
X135710000Y-117200000D03*
X134690000Y-117200000D03*
D12*
X140600000Y-125620000D03*
X140600000Y-126580000D03*
D13*
X123350000Y-89200000D03*
X124900000Y-89200000D03*
D14*
X139390000Y-76000000D03*
X140410000Y-76000000D03*
D15*
X122700000Y-119250000D03*
X122700000Y-117150000D03*
D16*
X128000000Y-91920000D03*
X128000000Y-93190000D03*
X128000000Y-94460000D03*
X128000000Y-95730000D03*
X128000000Y-97000000D03*
X128000000Y-98270000D03*
X128000000Y-99540000D03*
X128000000Y-100810000D03*
X128000000Y-102080000D03*
X128000000Y-103350000D03*
X128000000Y-104620000D03*
X128000000Y-105890000D03*
X128000000Y-107160000D03*
X128000000Y-108430000D03*
X128000000Y-109700000D03*
X128000000Y-110970000D03*
X128000000Y-112240000D03*
X128000000Y-113510000D03*
X128000000Y-114780000D03*
X145600000Y-114780000D03*
X145600000Y-113510000D03*
X145600000Y-112240000D03*
X145600000Y-110970000D03*
X145600000Y-109700000D03*
X145600000Y-108430000D03*
X145600000Y-107160000D03*
X145600000Y-105890000D03*
X145600000Y-104620000D03*
X145600000Y-103350000D03*
X145600000Y-102080000D03*
X145600000Y-100810000D03*
X145600000Y-99540000D03*
X145600000Y-98270000D03*
X145600000Y-97000000D03*
X145600000Y-95730000D03*
X145600000Y-94460000D03*
X145600000Y-93190000D03*
X145600000Y-91920000D03*
D17*
X133900000Y-98320000D03*
X135300000Y-98320000D03*
X136700000Y-98320000D03*
X133900000Y-99720000D03*
X135300000Y-99720000D03*
X136700000Y-99720000D03*
X133900000Y-101120000D03*
X135300000Y-101120000D03*
X136700000Y-101120000D03*
D14*
X144890000Y-58300000D03*
X145910000Y-58300000D03*
D18*
X151100000Y-113100000D03*
X151100000Y-112700000D03*
X151100000Y-112300000D03*
X151500000Y-113100000D03*
X151500000Y-112700000D03*
X151500000Y-112300000D03*
X151900000Y-113100000D03*
X151900000Y-112700000D03*
X151900000Y-112300000D03*
D19*
X126100000Y-65820000D03*
X126100000Y-64800000D03*
X132100000Y-121610000D03*
X132100000Y-120590000D03*
D20*
X143300000Y-65550000D03*
X143300000Y-67100000D03*
D21*
X134500000Y-65590000D03*
X134500000Y-66610000D03*
D22*
X160589359Y-86721762D03*
X163360641Y-88321762D03*
X165810641Y-84078238D03*
X163039359Y-82478238D03*
D14*
X146900000Y-67300000D03*
X147920000Y-67300000D03*
D19*
X148900000Y-87310000D03*
X148900000Y-86290000D03*
D23*
X111920000Y-118900000D03*
X112880000Y-118900000D03*
D24*
X147780000Y-70600000D03*
X146820000Y-70600000D03*
D14*
X124890000Y-108400000D03*
X125910000Y-108400000D03*
D11*
X148810000Y-109300000D03*
X147790000Y-109300000D03*
D15*
X122700000Y-120750000D03*
X122700000Y-122850000D03*
D23*
X138780000Y-122100000D03*
X137820000Y-122100000D03*
D19*
X150000000Y-84110000D03*
X150000000Y-83090000D03*
D20*
X120700000Y-115825000D03*
X120700000Y-117375000D03*
D25*
X118300000Y-115500000D03*
X117800000Y-115500000D03*
X117300000Y-115500000D03*
X116800000Y-115500000D03*
X116800000Y-117500000D03*
X117300000Y-117500000D03*
X117800000Y-117500000D03*
X118300000Y-117500000D03*
D26*
X117550000Y-116500000D03*
D27*
X138200000Y-75980000D03*
X138200000Y-75020000D03*
D28*
X117706476Y-102945191D03*
D29*
X125327499Y-98545191D03*
D30*
X147150000Y-64550000D03*
X148450000Y-63250000D03*
X147150000Y-63250000D03*
X148450000Y-64550000D03*
D31*
X145862500Y-62650000D03*
X145862500Y-63150000D03*
X145862500Y-63650000D03*
X145862500Y-64150000D03*
X145862500Y-64650000D03*
X145862500Y-65150000D03*
D32*
X146550000Y-65837500D03*
X147050000Y-65837500D03*
X147550000Y-65837500D03*
X148050000Y-65837500D03*
X148550000Y-65837500D03*
X149050000Y-65837500D03*
D31*
X149737500Y-65150000D03*
X149737500Y-64650000D03*
X149737500Y-64150000D03*
X149737500Y-63650000D03*
X149737500Y-63150000D03*
X149737500Y-62650000D03*
D32*
X149050000Y-61962500D03*
X148550000Y-61962500D03*
X148050000Y-61962500D03*
X147550000Y-61962500D03*
X147050000Y-61962500D03*
X146550000Y-61962500D03*
D19*
X125900000Y-114510000D03*
X125900000Y-113490000D03*
D33*
X152300000Y-117675000D03*
X152300000Y-116125000D03*
D34*
X126150000Y-63450000D03*
X126150000Y-62800000D03*
X126150000Y-62150000D03*
X124250000Y-62150000D03*
X124250000Y-62800000D03*
X124250000Y-63450000D03*
D19*
X137900000Y-118310000D03*
X137900000Y-117290000D03*
X120900000Y-79810000D03*
X120900000Y-78790000D03*
D35*
X140650000Y-77762500D03*
X138750000Y-77762500D03*
X139700000Y-79637500D03*
D13*
X119125000Y-121500000D03*
X120675000Y-121500000D03*
D11*
X148810000Y-103100000D03*
X147790000Y-103100000D03*
D18*
X122500000Y-112300000D03*
X122500000Y-112700000D03*
X122500000Y-113100000D03*
X122100000Y-112300000D03*
X122100000Y-112700000D03*
X122100000Y-113100000D03*
X121700000Y-112300000D03*
X121700000Y-112700000D03*
X121700000Y-113100000D03*
D14*
X133190000Y-76000000D03*
X134210000Y-76000000D03*
D12*
X149300000Y-112820000D03*
X149300000Y-113780000D03*
D36*
X110560641Y-82478238D03*
X107789359Y-84078238D03*
X110239359Y-88321762D03*
X113010641Y-86721762D03*
D19*
X152300000Y-104510000D03*
X152300000Y-103490000D03*
D14*
X145590000Y-59400000D03*
X146610000Y-59400000D03*
X123690000Y-82000000D03*
X124710000Y-82000000D03*
X147790000Y-110400000D03*
X148810000Y-110400000D03*
D21*
X155000000Y-115890000D03*
X155000000Y-116910000D03*
D37*
X115100000Y-118850000D03*
X115100000Y-117350000D03*
D11*
X125510000Y-104600000D03*
X124490000Y-104600000D03*
D12*
X134400000Y-125520000D03*
X134400000Y-126480000D03*
X119400000Y-115820000D03*
X119400000Y-116780000D03*
D21*
X135600000Y-71690000D03*
X135600000Y-72710000D03*
D38*
X148272501Y-98545191D03*
D39*
X155893524Y-102945191D03*
D14*
X138990000Y-66600000D03*
X140010000Y-66600000D03*
D27*
X125600000Y-92980000D03*
X125600000Y-92020000D03*
D14*
X135590000Y-125600000D03*
X136610000Y-125600000D03*
D11*
X148810000Y-104400000D03*
X147790000Y-104400000D03*
D13*
X119125000Y-119800000D03*
X120675000Y-119800000D03*
D27*
X124300000Y-112380000D03*
X124300000Y-111420000D03*
D33*
X125700000Y-112075000D03*
X125700000Y-110525000D03*
D40*
X147845000Y-94041673D03*
X148355000Y-93158327D03*
D11*
X149110000Y-111600000D03*
X148090000Y-111600000D03*
D14*
X139190000Y-118200000D03*
X140210000Y-118200000D03*
D23*
X155020000Y-114700000D03*
X155980000Y-114700000D03*
D14*
X147790000Y-101700000D03*
X148810000Y-101700000D03*
D27*
X124900000Y-86360000D03*
X124900000Y-85400000D03*
D23*
X144700000Y-67300000D03*
X145660000Y-67300000D03*
D11*
X125910000Y-107000000D03*
X124890000Y-107000000D03*
D12*
X155000000Y-122020000D03*
X155000000Y-122980000D03*
D41*
X138150000Y-120100000D03*
X140650000Y-120100000D03*
D13*
X122325000Y-115600000D03*
X123875000Y-115600000D03*
X148050000Y-68700000D03*
X149600000Y-68700000D03*
D20*
X122300000Y-75425000D03*
X122300000Y-76975000D03*
D19*
X151100000Y-104510000D03*
X151100000Y-103490000D03*
X155000000Y-119110000D03*
X155000000Y-118090000D03*
X129000000Y-64320000D03*
X129000000Y-63300000D03*
D42*
X151855000Y-86558327D03*
X151345000Y-87441673D03*
D43*
X119941458Y-107244985D03*
X116934441Y-106150521D03*
X115258542Y-110755015D03*
X118265559Y-111849479D03*
D11*
X140000000Y-65600000D03*
X138980000Y-65600000D03*
D19*
X151100000Y-84110000D03*
X151100000Y-83090000D03*
D44*
X120545000Y-85058327D03*
X121055000Y-85941673D03*
D45*
X125250000Y-125600000D03*
X125250000Y-128800000D03*
X130150000Y-128800000D03*
X130150000Y-125600000D03*
D46*
X114560000Y-85384308D03*
X115040000Y-86215692D03*
D24*
X124680000Y-68600000D03*
X123720000Y-68600000D03*
D14*
X111890000Y-117700000D03*
X112910000Y-117700000D03*
D12*
X135400000Y-75020000D03*
X135400000Y-75980000D03*
D27*
X132100000Y-119380000D03*
X132100000Y-118420000D03*
D47*
X125675000Y-67200000D03*
X124125000Y-67200000D03*
D12*
X147800000Y-107020000D03*
X147800000Y-107980000D03*
D45*
X146100000Y-69000000D03*
X146100000Y-72200000D03*
X139700000Y-72200000D03*
X139700000Y-69000000D03*
D11*
X120810000Y-122900000D03*
X119790000Y-122900000D03*
X124110000Y-64900000D03*
X123090000Y-64900000D03*
D14*
X132690000Y-117200000D03*
X133710000Y-117200000D03*
D19*
X133400000Y-66610000D03*
X133400000Y-65590000D03*
D10*
X137750000Y-66062500D03*
X136800000Y-66062500D03*
X135850000Y-66062500D03*
X135850000Y-68337500D03*
X136800000Y-68337500D03*
X137750000Y-68337500D03*
D11*
X148810000Y-91900000D03*
X147790000Y-91900000D03*
D19*
X123100000Y-104710000D03*
X123100000Y-103690000D03*
D45*
X111750000Y-120800000D03*
X111750000Y-124000000D03*
X116650000Y-124000000D03*
X116650000Y-120800000D03*
D14*
X116790000Y-118800000D03*
X117810000Y-118800000D03*
D48*
X155334441Y-111849479D03*
X158341458Y-110755015D03*
X156665559Y-106150521D03*
X153658542Y-107244985D03*
D11*
X139410000Y-125600000D03*
X138390000Y-125600000D03*
D21*
X123300000Y-85390000D03*
X123300000Y-86410000D03*
D35*
X134850000Y-77762500D03*
X132950000Y-77762500D03*
X133900000Y-79637500D03*
D49*
X140150000Y-62978000D03*
X139350000Y-62978000D03*
X138050000Y-62978000D03*
X137050000Y-62978000D03*
X136550000Y-62978000D03*
X135550000Y-62978000D03*
X134250000Y-62978000D03*
X133450000Y-62978000D03*
X133750000Y-62978000D03*
X134550000Y-62978000D03*
X135050000Y-62978000D03*
X136050000Y-62978000D03*
X137550000Y-62978000D03*
X138550000Y-62978000D03*
X139050000Y-62978000D03*
X139850000Y-62978000D03*
D50*
X131690000Y-62403000D03*
X131690000Y-58473000D03*
X141910000Y-58473000D03*
X141910000Y-62403000D03*
D51*
X125150000Y-72150000D03*
X125150000Y-70250000D03*
X122650000Y-71200000D03*
D19*
X151000000Y-68310000D03*
X151000000Y-67290000D03*
D45*
X156950000Y-120800000D03*
X156950000Y-124000000D03*
X161850000Y-124000000D03*
X161850000Y-120800000D03*
D19*
X136700000Y-121610000D03*
X136700000Y-120590000D03*
D23*
X121840000Y-73800000D03*
X122800000Y-73800000D03*
D45*
X133900000Y-69000000D03*
X133900000Y-72200000D03*
X127500000Y-72200000D03*
X127500000Y-69000000D03*
D14*
X148980000Y-67300000D03*
X150000000Y-67300000D03*
D23*
X122520000Y-106600000D03*
X123480000Y-106600000D03*
D52*
X158560000Y-86215692D03*
X159040000Y-85384308D03*
D14*
X148890000Y-70600000D03*
X149910000Y-70600000D03*
D19*
X121900000Y-104710000D03*
X121900000Y-103690000D03*
D24*
X132380000Y-65500000D03*
X131420000Y-65500000D03*
D20*
X147800000Y-113025000D03*
X147800000Y-114575000D03*
D53*
X120579243Y-105400000D03*
X119620757Y-105051140D03*
D54*
X127300000Y-119950000D03*
X127300000Y-77450000D03*
X146300000Y-77450000D03*
X146300000Y-119950000D03*
D24*
X140980000Y-122100000D03*
X140020000Y-122100000D03*
D23*
X134720000Y-70600000D03*
X135680000Y-70600000D03*
D14*
X123590000Y-84100000D03*
X124610000Y-84100000D03*
D45*
X143450000Y-125600000D03*
X143450000Y-128800000D03*
X148350000Y-128800000D03*
X148350000Y-125600000D03*
M02*
