%TF.GenerationSoftware,KiCad,Pcbnew,(6.0.6)*%
%TF.CreationDate,2022-10-05T22:33:56-05:00*%
%TF.ProjectId,Halloween_Ghost_v1,48616c6c-6f77-4656-956e-5f47686f7374,rev?*%
%TF.SameCoordinates,Original*%
%TF.FileFunction,Profile,NP*%
%FSLAX46Y46*%
G04 Gerber Fmt 4.6, Leading zero omitted, Abs format (unit mm)*
G04 Created by KiCad (PCBNEW (6.0.6)) date 2022-10-05 22:33:56*
%MOMM*%
%LPD*%
G01*
G04 APERTURE LIST*
%TA.AperFunction,Profile*%
%ADD10C,0.300000*%
%TD*%
G04 APERTURE END LIST*
D10*
X141655342Y-129483745D02*
X140322967Y-128671360D01*
X153529147Y-125040580D02*
X152978542Y-125332345D01*
X163358062Y-124517470D02*
X163061452Y-124964560D01*
X115522117Y-101724655D02*
X115235962Y-100865275D01*
X118512397Y-84986680D02*
X118808842Y-84720190D01*
X110173837Y-119248480D02*
X110884282Y-117539560D01*
X120296092Y-125145325D02*
X119959822Y-125018725D01*
X109470727Y-80395195D02*
X109862857Y-80449525D01*
X123043912Y-128575360D02*
X122177347Y-127236400D01*
X109612462Y-122755450D02*
X109545187Y-121959295D01*
X156589807Y-85432210D02*
X157260757Y-85361170D01*
X139316212Y-128148235D02*
X138457627Y-127835230D01*
X162944062Y-118049725D02*
X163503082Y-119368060D01*
X151209667Y-127525060D02*
X150304237Y-128829505D01*
X115736137Y-103274185D02*
X115684792Y-102519250D01*
X147028462Y-131130385D02*
X146134732Y-131206885D01*
X158660437Y-126371875D02*
X157761877Y-126079495D01*
X135842947Y-127682725D02*
X135244117Y-127824625D01*
X166298977Y-81077395D02*
X166560007Y-81349495D01*
X148695847Y-130425865D02*
X147803692Y-130905430D01*
X106533532Y-82612870D02*
X106697917Y-82062910D01*
X120025852Y-75452335D02*
X120169942Y-71218180D01*
X145203082Y-131134765D02*
X144314047Y-130914175D01*
X140322967Y-128671360D02*
X139316212Y-128148235D01*
X163503082Y-119368060D02*
X163832002Y-120301435D01*
X109916257Y-92341885D02*
X108612292Y-90131545D01*
X109584067Y-121195630D02*
X109767007Y-120379645D01*
X163427362Y-80524915D02*
X163988737Y-80413150D01*
X158388487Y-100904920D02*
X158067847Y-101843920D01*
X107888392Y-80713975D02*
X108656152Y-80452645D01*
X115319182Y-126228265D02*
X114280117Y-126530335D01*
X161791507Y-126128965D02*
X161263702Y-126403870D01*
X167097502Y-83793685D02*
X166955422Y-85156840D01*
X106449862Y-83225290D02*
X106533532Y-82612870D01*
X161004097Y-82654405D02*
X162156487Y-81479215D01*
X154508887Y-84415315D02*
X154925227Y-84858025D01*
X109795582Y-123509320D02*
X109612462Y-122755450D01*
X116510452Y-85430950D02*
X117046522Y-85463575D01*
X159434887Y-126550315D02*
X158660437Y-126371875D01*
X151862977Y-126559675D02*
X151209667Y-127525060D01*
X114280117Y-126530335D02*
X113510977Y-126621805D01*
X115647787Y-104103895D02*
X115736137Y-103274185D01*
X133971847Y-128318245D02*
X132555622Y-129104245D01*
X135244117Y-127824625D02*
X133971847Y-128318245D01*
X138457627Y-127835230D02*
X137570137Y-127653055D01*
X110227537Y-80562865D02*
X110603452Y-80811385D01*
X153430012Y-71218180D02*
X153527572Y-75145420D01*
X157943107Y-104309650D02*
X158275612Y-105582100D01*
X147803692Y-130905430D02*
X147028462Y-131130385D01*
X159179497Y-84412030D02*
X159972367Y-83694565D01*
X162394237Y-94350070D02*
X160270537Y-97426195D01*
X156714382Y-125672515D02*
X155682337Y-125274445D01*
X164012302Y-122416240D02*
X163931602Y-122981665D01*
X166560007Y-81349495D02*
X166766692Y-81659215D01*
X112581817Y-82713400D02*
X113881117Y-84024265D01*
X126589927Y-131163955D02*
X126073672Y-131010955D01*
X157824937Y-103514125D02*
X157943107Y-104309650D01*
X119959822Y-125018725D02*
X119594677Y-124957855D01*
X130951447Y-130064320D02*
X129746587Y-130674400D01*
X153527572Y-75145420D02*
X153707257Y-80590480D01*
X125446267Y-130729030D02*
X124578922Y-130215280D01*
X119184127Y-124963780D02*
X118160677Y-125182630D01*
X158855722Y-99869290D02*
X158388487Y-100904920D01*
X154925227Y-84858025D02*
X155415247Y-85177285D01*
X146134732Y-131206885D02*
X145203082Y-131134765D01*
X154133902Y-124943485D02*
X153529147Y-125040580D01*
X115684792Y-102519250D02*
X115522117Y-101724655D01*
X115390057Y-105269260D02*
X115647787Y-104103895D01*
X121364017Y-126091360D02*
X120957832Y-125633650D01*
X164035252Y-121829740D02*
X164012302Y-122416240D01*
X114242962Y-98851150D02*
X113511277Y-97646005D01*
X165840652Y-88417480D02*
X164848582Y-90429235D01*
X153430058Y-71218180D02*
G75*
G03*
X136684299Y-54588547I-16615458J14680D01*
G01*
X132555622Y-129104245D02*
X130951447Y-130064320D01*
X117046522Y-85463575D02*
X117453967Y-85433455D01*
X114973402Y-106738555D02*
X115390057Y-105269260D01*
X124578922Y-130215280D02*
X123811342Y-129532780D01*
X163602832Y-124035550D02*
X163358062Y-124517470D01*
X110086417Y-124209775D02*
X109795582Y-123509320D01*
X108612292Y-90131545D02*
X107608492Y-88098700D01*
X114980737Y-84871615D02*
X115491997Y-85144030D01*
X158067847Y-101843920D02*
X157883482Y-102706720D01*
X108656152Y-80452645D02*
X109470727Y-80395195D01*
X165642397Y-80659015D02*
X166298977Y-81077395D01*
X159972367Y-83694565D02*
X161004097Y-82654405D01*
X155972392Y-85369750D02*
X156589807Y-85432210D01*
X123811342Y-129532780D02*
X123043912Y-128575360D01*
X163988737Y-80413150D02*
X164853427Y-80429065D01*
X114448552Y-84501325D02*
X114980737Y-84871615D01*
X113510977Y-126621805D02*
X112881532Y-126530800D01*
X119594677Y-124957855D02*
X119184127Y-124963780D01*
X116757712Y-125687500D02*
X115319182Y-126228265D01*
X115235962Y-100865275D02*
X114813697Y-99915805D01*
X155682337Y-125274445D02*
X154836862Y-125026375D01*
X115491997Y-85144030D02*
X115997167Y-85327465D01*
X106446442Y-83898280D02*
X106449862Y-83225290D01*
X113881117Y-84024265D02*
X114448552Y-84501325D01*
X164848582Y-90429235D02*
X163684627Y-92434930D01*
X106943782Y-81577405D02*
X107271457Y-81158410D01*
X111172612Y-81299845D02*
X112581817Y-82713400D01*
X166927957Y-82064155D02*
X167036452Y-82569325D01*
X157978402Y-85153555D02*
X158542417Y-84875515D01*
X163832002Y-120301435D02*
X163989982Y-121054045D01*
X152978542Y-125332345D02*
X152437942Y-125833780D01*
X112170322Y-126260260D02*
X111527137Y-125882005D01*
X114408607Y-108480250D02*
X114973402Y-106738555D01*
X161263702Y-126403870D02*
X160711537Y-126565915D01*
X166955422Y-85156840D02*
X166615747Y-86484070D01*
X157761877Y-126079495D02*
X156714382Y-125672515D01*
X129746587Y-130674400D02*
X128750002Y-131017510D01*
X107554492Y-80914570D02*
X107888392Y-80713975D01*
X118187377Y-85194610D02*
X118512397Y-84986680D01*
X120957832Y-125633650D02*
X120619852Y-125335795D01*
X161096497Y-113590480D02*
X162944062Y-118049725D01*
X109545187Y-121959295D02*
X109584067Y-121195630D01*
X107271457Y-81158410D02*
X107554492Y-80914570D01*
X155415247Y-85177285D02*
X155972392Y-85369750D01*
X106522297Y-84629500D02*
X106446442Y-83898280D01*
X136425697Y-127608115D02*
X135842947Y-127682725D01*
X149497942Y-129765055D02*
X148695847Y-130425865D01*
X144314047Y-130914175D02*
X143164312Y-130364665D01*
X162156487Y-81479215D02*
X162890362Y-80824810D01*
X118160677Y-125182630D02*
X116757712Y-125687500D01*
X163989982Y-121054045D02*
X164035252Y-121829740D01*
X154173247Y-83852380D02*
X154508887Y-84415315D01*
X110884282Y-117539560D02*
X112878112Y-112654600D01*
X143164312Y-130364665D02*
X141655342Y-129483745D01*
X167036452Y-82569325D02*
X167097502Y-83793685D01*
X126073672Y-131010955D02*
X125446267Y-130729030D01*
X119713177Y-82865305D02*
X119842732Y-81566785D01*
X160110217Y-126614935D02*
X159434887Y-126550315D01*
X127770247Y-131175970D02*
X127115392Y-131211235D01*
X117453967Y-85433455D02*
X117834262Y-85343695D01*
X164853427Y-80429065D02*
X165642397Y-80659015D01*
X157260757Y-85361170D02*
X157978402Y-85153555D01*
X153924877Y-83172520D02*
X154173247Y-83852380D01*
X160711537Y-126565915D02*
X160110217Y-126614935D01*
X111527137Y-125882005D02*
X110960167Y-125406970D01*
X122177347Y-127236400D02*
X121364017Y-126091360D01*
X159479542Y-98716585D02*
X158855722Y-99869290D01*
X166615747Y-86484070D02*
X165840652Y-88417480D01*
X162714892Y-125373715D02*
X162319927Y-125741515D01*
X119076412Y-84395635D02*
X119522407Y-83573890D01*
X119842732Y-81566785D02*
X120025852Y-75452335D01*
X150304237Y-128829505D02*
X149497942Y-129765055D01*
X154836862Y-125026375D02*
X154133902Y-124943485D01*
X106677157Y-85417210D02*
X106522297Y-84629500D01*
X114813697Y-99915805D02*
X114242962Y-98851150D01*
X110603452Y-80811385D02*
X111172612Y-81299845D01*
X120619852Y-125335795D02*
X120296092Y-125145325D01*
X136999252Y-127598725D02*
X136425697Y-127608115D01*
X137570137Y-127653055D02*
X136999252Y-127598725D01*
X119522407Y-83573890D02*
X119713177Y-82865305D01*
X128750002Y-131017510D02*
X127770247Y-131175970D01*
X163061452Y-124964560D02*
X162714892Y-125373715D01*
X157883482Y-102706720D02*
X157824937Y-103514125D01*
X111515437Y-94713505D02*
X109916257Y-92341885D01*
X112881532Y-126530800D02*
X112170322Y-126260260D01*
X159453307Y-109187740D02*
X161096497Y-113590480D01*
X106697917Y-82062910D02*
X106943782Y-81577405D01*
X158275612Y-105582100D02*
X159453307Y-109187740D01*
X110477302Y-124845910D02*
X110086417Y-124209775D01*
X153814507Y-82305190D02*
X153924877Y-83172520D01*
X160270537Y-97426195D02*
X159479542Y-98716585D01*
X153707257Y-80590480D02*
X153814507Y-82305190D01*
X106910227Y-86259265D02*
X106677157Y-85417210D01*
X113511277Y-97646005D02*
X111515437Y-94713505D01*
X163684627Y-92434930D02*
X162394237Y-94350070D01*
X136684299Y-54588546D02*
G75*
G03*
X120169942Y-71218180I115901J-16629854D01*
G01*
X109862857Y-80449525D02*
X110227537Y-80562865D01*
X117834262Y-85343695D02*
X118187377Y-85194610D01*
X110960167Y-125406970D02*
X110477302Y-124845910D01*
X115997167Y-85327465D02*
X116510452Y-85430950D01*
X158542417Y-84875515D02*
X159179497Y-84412030D01*
X109767007Y-120379645D02*
X110173837Y-119248480D01*
X112878112Y-112654600D02*
X114408607Y-108480250D01*
X152437942Y-125833780D02*
X151862977Y-126559675D01*
X107608492Y-88098700D02*
X106910227Y-86259265D01*
X162319927Y-125741515D02*
X161791507Y-126128965D01*
X166766692Y-81659215D02*
X166927957Y-82064155D01*
X163794697Y-123522580D02*
X163602832Y-124035550D01*
X118808842Y-84720190D02*
X119076412Y-84395635D01*
X163931602Y-122981665D02*
X163794697Y-123522580D01*
X162890362Y-80824810D02*
X163427362Y-80524915D01*
X127115392Y-131211235D02*
X126589927Y-131163955D01*
M02*
