%FSLAX45Y45*%
G04 Gerber Fmt 4.5, Leading zero omitted, Abs format (unit mm)*
G04 Created by KiCad (PCBNEW (6.0.6)) date 2022-10-05 22:34:14*
%MOMM*%
%LPD*%
G01*
G04 APERTURE LIST*
%TA.AperFunction,Profile*%
%ADD10C,0.300000*%
%TD*%
%ADD11C,0.200000*%
%ADD12C,0.030000*%
G04 APERTURE END LIST*
D10*
X14165534Y-12948374D02*
X14032297Y-12867136D01*
X15352915Y-12504058D02*
X15297854Y-12533234D01*
X16335806Y-12451747D02*
X16306145Y-12496456D01*
X11552212Y-10172466D02*
X11523596Y-10086528D01*
X11851240Y-8498668D02*
X11880884Y-8472019D01*
X11017384Y-11924848D02*
X11088428Y-11753956D01*
X12029609Y-12514532D02*
X11995982Y-12501872D01*
X10947073Y-8039519D02*
X10986286Y-8044952D01*
X12304391Y-12857536D02*
X12217735Y-12723640D01*
X10961246Y-12275545D02*
X10954519Y-12195929D01*
X15658981Y-8543221D02*
X15726076Y-8536117D01*
X13931621Y-12814823D02*
X13845763Y-12783523D01*
X16294406Y-11804972D02*
X16350308Y-11936806D01*
X15120967Y-12752506D02*
X15030424Y-12882950D01*
X11573614Y-10327419D02*
X11568479Y-10251925D01*
X14702846Y-13113038D02*
X14613473Y-13120688D01*
X15866044Y-12637187D02*
X15776188Y-12607949D01*
X13584295Y-12768272D02*
X13524412Y-12782462D01*
X16629898Y-8107739D02*
X16656001Y-8134949D01*
X14869585Y-13042586D02*
X14780369Y-13090543D01*
X10653353Y-8261287D02*
X10669792Y-8206291D01*
X12002585Y-7545233D02*
X12016994Y-7121818D01*
X14520308Y-13113476D02*
X14431405Y-13091417D01*
X14032297Y-12867136D02*
X13931621Y-12814823D01*
X16350308Y-11936806D02*
X16383200Y-12030143D01*
X10991626Y-9234189D02*
X10861229Y-9013155D01*
X10958407Y-12119563D02*
X10976701Y-12037964D01*
X16342736Y-8052491D02*
X16398874Y-8041315D01*
X15838849Y-10090492D02*
X15806785Y-10184392D01*
X10788839Y-8071397D02*
X10865615Y-8045264D01*
X11531918Y-12622826D02*
X11428012Y-12653033D01*
X16179151Y-12612896D02*
X16126370Y-12640387D01*
X16709750Y-8379368D02*
X16695542Y-8515684D01*
X10644986Y-8322529D02*
X10653353Y-8261287D01*
X16100410Y-8265440D02*
X16215649Y-8147921D01*
X15450889Y-8441532D02*
X15492523Y-8485803D01*
X10979558Y-12350932D02*
X10961246Y-12275545D01*
X11651045Y-8543095D02*
X11704652Y-8546358D01*
X15943489Y-12655031D02*
X15866044Y-12637187D01*
X15186298Y-12655967D02*
X15120967Y-12752506D01*
X11428012Y-12653033D02*
X11351098Y-12662180D01*
X11564779Y-10410390D02*
X11573614Y-10327419D01*
X13397185Y-12831824D02*
X13255562Y-12910424D01*
X13524412Y-12782462D02*
X13397185Y-12831824D01*
X13845763Y-12783523D02*
X13757014Y-12765305D01*
X11022754Y-8056286D02*
X11060345Y-8081138D01*
X15343001Y-7121818D02*
X15352757Y-7514542D01*
X15794311Y-10430965D02*
X15827561Y-10558210D01*
X14780369Y-13090543D02*
X14702846Y-13113038D01*
X15917950Y-8441203D02*
X15997237Y-8369456D01*
X16239424Y-9435007D02*
X16027054Y-9742620D01*
X15671438Y-12567251D02*
X15568234Y-12527444D01*
X16401230Y-12241624D02*
X16393160Y-12298166D01*
X16656001Y-8134949D02*
X16676669Y-8165921D01*
X11258182Y-8271340D02*
X11388112Y-8402427D01*
X12658993Y-13116395D02*
X12607367Y-13101095D01*
X15782494Y-10351413D02*
X15794311Y-10430965D01*
X11995982Y-12501872D02*
X11959468Y-12495785D01*
X13095145Y-13006432D02*
X12974659Y-13067440D01*
X15352757Y-7514542D02*
X15370726Y-8059048D01*
X12544627Y-13072903D02*
X12457892Y-13021528D01*
X11918413Y-12496378D02*
X11816068Y-12518263D01*
X15885572Y-9986929D02*
X15838849Y-10090492D01*
X15492523Y-8485803D02*
X15541525Y-8517729D01*
X14613473Y-13120688D02*
X14520308Y-13113476D01*
X15413390Y-12494348D02*
X15352915Y-12504058D01*
X11568479Y-10251925D02*
X11552212Y-10172466D01*
X11539006Y-10526926D02*
X11564779Y-10410390D01*
X12136402Y-12609136D02*
X12095783Y-12563365D01*
X16403525Y-12182974D02*
X16401230Y-12241624D01*
X11424296Y-9885115D02*
X11351128Y-9764601D01*
X16584065Y-8841748D02*
X16484858Y-9042924D01*
X15343006Y-7121818D02*
G75*
G03*
X13668430Y-5458855I-1661546J1468D01*
G01*
X13255562Y-12910424D02*
X13095145Y-13006432D01*
X11704652Y-8546358D02*
X11745397Y-8543346D01*
X11497340Y-10673856D02*
X11539006Y-10526926D01*
X12457892Y-13021528D02*
X12381134Y-12953278D01*
X16360283Y-12403555D02*
X16335806Y-12451747D01*
X11008642Y-12420977D02*
X10979558Y-12350932D01*
X10861229Y-9013155D02*
X10760849Y-8809870D01*
X11498074Y-8487162D02*
X11549200Y-8514403D01*
X15806785Y-10184392D02*
X15788348Y-10270672D01*
X10865615Y-8045264D02*
X10947073Y-8039519D01*
X16564240Y-8065901D02*
X16629898Y-8107739D01*
X15997237Y-8369456D02*
X16100410Y-8265440D01*
X15597239Y-8536975D02*
X15658981Y-8543221D01*
X12381134Y-12953278D02*
X12304391Y-12857536D01*
X16398874Y-8041315D02*
X16485343Y-8042906D01*
X11444855Y-8450133D02*
X11498074Y-8487162D01*
X11351098Y-12662180D02*
X11288153Y-12653080D01*
X11959468Y-12495785D02*
X11918413Y-12496378D01*
X11675771Y-12568750D02*
X11531918Y-12622826D01*
X11523596Y-10086528D02*
X11481370Y-9991581D01*
X15568234Y-12527444D02*
X15483686Y-12502637D01*
X11549200Y-8514403D02*
X11599717Y-8532747D01*
X10644644Y-8389828D02*
X10644986Y-8322529D01*
X11388112Y-8402427D02*
X11444855Y-8450133D01*
X16484858Y-9042924D02*
X16368463Y-9243493D01*
X10694378Y-8157740D02*
X10727146Y-8115841D01*
X11117261Y-8129984D02*
X11258182Y-8271340D01*
X16692796Y-8206415D02*
X16703645Y-8256932D01*
X15797840Y-8515356D02*
X15854242Y-8487552D01*
X16383200Y-12030143D02*
X16398998Y-12105404D01*
X15297854Y-12533234D02*
X15243794Y-12583378D01*
X11217032Y-12626026D02*
X11152714Y-12588200D01*
X11440861Y-10848025D02*
X11497340Y-10673856D01*
X16126370Y-12640387D02*
X16071154Y-12656591D01*
X16695542Y-8515684D02*
X16661575Y-8648407D01*
X15776188Y-12607949D02*
X15671438Y-12567251D01*
X12974659Y-13067440D02*
X12875000Y-13101751D01*
X10755449Y-8091457D02*
X10788839Y-8071397D01*
X11818738Y-8519461D02*
X11851240Y-8498668D01*
X12095783Y-12563365D02*
X12061985Y-12533579D01*
X16109650Y-11359048D02*
X16294406Y-11804972D01*
X10954519Y-12195929D02*
X10958407Y-12119563D01*
X10727146Y-8115841D02*
X10755449Y-8091457D01*
X15541525Y-8517729D02*
X15597239Y-8536975D01*
X10652230Y-8462950D02*
X10644644Y-8389828D01*
X13642570Y-12760811D02*
X13584295Y-12768272D01*
X14949794Y-12976505D02*
X14869585Y-13042586D01*
X14431405Y-13091417D02*
X14316431Y-13036466D01*
X16215649Y-8147921D02*
X16289036Y-8082481D01*
X11816068Y-12518263D02*
X11675771Y-12568750D01*
X16398998Y-12105404D02*
X16403525Y-12182974D01*
X15417325Y-8385238D02*
X15450889Y-8441532D01*
X11088428Y-11753956D02*
X11287811Y-11265460D01*
X14316431Y-13036466D02*
X14165534Y-12948374D01*
X16703645Y-8256932D02*
X16709750Y-8379368D01*
X12607367Y-13101095D02*
X12544627Y-13072903D01*
X11971318Y-8286530D02*
X11984273Y-8156678D01*
X16011022Y-12661493D02*
X15943489Y-12655031D01*
X12777025Y-13117597D02*
X12711539Y-13121123D01*
X11745397Y-8543346D02*
X11783426Y-8534370D01*
X16485343Y-8042906D02*
X16564240Y-8065901D01*
X15726076Y-8536117D02*
X15797840Y-8515356D01*
X15392488Y-8317252D02*
X15417325Y-8385238D01*
X16071154Y-12656591D02*
X16011022Y-12661493D01*
X11152714Y-12588200D02*
X11096017Y-12540697D01*
X12217735Y-12723640D02*
X12136402Y-12609136D01*
X15947954Y-9871659D02*
X15885572Y-9986929D01*
X16661575Y-8648407D02*
X16584065Y-8841748D01*
X16271489Y-12537371D02*
X16231993Y-12574151D01*
X11907641Y-8439564D02*
X11952241Y-8357389D01*
X11984273Y-8156678D02*
X12002585Y-7545233D01*
X15030424Y-12882950D02*
X14949794Y-12976505D01*
X15483686Y-12502637D02*
X15413390Y-12494348D01*
X10667716Y-8541721D02*
X10652230Y-8462950D01*
X11481370Y-9991581D02*
X11424296Y-9885115D01*
X11060345Y-8081138D02*
X11117261Y-8129984D01*
X12061985Y-12533579D02*
X12029609Y-12514532D01*
X13699925Y-12759872D02*
X13642570Y-12760811D01*
X13757014Y-12765305D02*
X13699925Y-12759872D01*
X11952241Y-8357389D02*
X11971318Y-8286530D01*
X12875000Y-13101751D02*
X12777025Y-13117597D01*
X16306145Y-12496456D02*
X16271489Y-12537371D01*
X15788348Y-10270672D02*
X15782494Y-10351413D01*
X11151544Y-9471351D02*
X10991626Y-9234189D01*
X11288153Y-12653080D02*
X11217032Y-12626026D01*
X15945331Y-10918774D02*
X16109650Y-11359048D01*
X10669792Y-8206291D02*
X10694378Y-8157740D01*
X15827561Y-10558210D02*
X15945331Y-10918774D01*
X11047730Y-12484591D02*
X11008642Y-12420977D01*
X15381451Y-8230519D02*
X15392488Y-8317252D01*
X16027054Y-9742620D02*
X15947954Y-9871659D01*
X15370726Y-8059048D02*
X15381451Y-8230519D01*
X10691023Y-8625927D02*
X10667716Y-8541721D01*
X11351128Y-9764601D02*
X11151544Y-9471351D01*
X16368463Y-9243493D02*
X16239424Y-9435007D01*
X13668430Y-5458855D02*
G75*
G03*
X12016994Y-7121818I11590J-1662985D01*
G01*
X10986286Y-8044952D02*
X11022754Y-8056286D01*
X11783426Y-8534370D02*
X11818738Y-8519461D01*
X11096017Y-12540697D02*
X11047730Y-12484591D01*
X11599717Y-8532747D02*
X11651045Y-8543095D01*
X15854242Y-8487552D02*
X15917950Y-8441203D01*
X10976701Y-12037964D02*
X11017384Y-11924848D01*
X11287811Y-11265460D02*
X11440861Y-10848025D01*
X15243794Y-12583378D02*
X15186298Y-12655967D01*
X10760849Y-8809870D02*
X10691023Y-8625927D01*
X16231993Y-12574151D02*
X16179151Y-12612896D01*
X16676669Y-8165921D02*
X16692796Y-8206415D01*
X16379470Y-12352258D02*
X16360283Y-12403555D01*
X11880884Y-8472019D02*
X11907641Y-8439564D01*
X16393160Y-12298166D02*
X16379470Y-12352258D01*
X16289036Y-8082481D02*
X16342736Y-8052491D01*
X12711539Y-13121123D02*
X12658993Y-13116395D01*
D11*
D12*
X11015000Y-9045000D02*
X11045000Y-9075000D01*
X11045000Y-9045000D02*
X11015000Y-9075000D01*
X11055000Y-12235000D02*
X11085000Y-12265000D01*
X11085000Y-12235000D02*
X11055000Y-12265000D01*
X11135000Y-8955000D02*
X11165000Y-8985000D01*
X11165000Y-8955000D02*
X11135000Y-8985000D01*
X11145000Y-8815000D02*
X11175000Y-8845000D01*
X11175000Y-8815000D02*
X11145000Y-8845000D01*
X11165000Y-12215000D02*
X11195000Y-12245000D01*
X11195000Y-12215000D02*
X11165000Y-12245000D01*
X11275000Y-11955000D02*
X11305000Y-11985000D01*
X11305000Y-11955000D02*
X11275000Y-11985000D01*
X11333677Y-9261468D02*
X11363677Y-9291468D01*
X11363677Y-9261468D02*
X11333677Y-9291468D01*
X11335000Y-12495000D02*
X11365000Y-12525000D01*
X11365000Y-12495000D02*
X11335000Y-12525000D01*
X11445000Y-11255000D02*
X11475000Y-11285000D01*
X11475000Y-11255000D02*
X11445000Y-11285000D01*
X11525000Y-12385000D02*
X11555000Y-12415000D01*
X11555000Y-12385000D02*
X11525000Y-12415000D01*
X11585000Y-8635000D02*
X11615000Y-8665000D01*
X11615000Y-8635000D02*
X11585000Y-8665000D01*
X11595000Y-9195000D02*
X11625000Y-9225000D01*
X11625000Y-9195000D02*
X11595000Y-9225000D01*
X11625000Y-11635000D02*
X11655000Y-11665000D01*
X11655000Y-11635000D02*
X11625000Y-11665000D01*
X11635000Y-9665000D02*
X11665000Y-9695000D01*
X11665000Y-9665000D02*
X11635000Y-9695000D01*
X11635000Y-10455000D02*
X11665000Y-10485000D01*
X11665000Y-10455000D02*
X11635000Y-10485000D01*
X11645000Y-8835000D02*
X11675000Y-8865000D01*
X11675000Y-8835000D02*
X11645000Y-8865000D01*
X11655000Y-12205000D02*
X11685000Y-12235000D01*
X11685000Y-12205000D02*
X11655000Y-12235000D01*
X11765000Y-10995000D02*
X11795000Y-11025000D01*
X11795000Y-10995000D02*
X11765000Y-11025000D01*
X11805000Y-12385000D02*
X11835000Y-12415000D01*
X11835000Y-12385000D02*
X11805000Y-12415000D01*
X11835000Y-11635000D02*
X11865000Y-11665000D01*
X11865000Y-11635000D02*
X11835000Y-11665000D01*
X11854350Y-8734350D02*
X11884350Y-8764350D01*
X11884350Y-8734350D02*
X11854350Y-8764350D01*
X11855000Y-10745000D02*
X11885000Y-10775000D01*
X11885000Y-10745000D02*
X11855000Y-10775000D01*
X11861866Y-8858134D02*
X11891866Y-8888134D01*
X11891866Y-8858134D02*
X11861866Y-8888134D01*
X11865000Y-9995000D02*
X11895000Y-10025000D01*
X11895000Y-9995000D02*
X11865000Y-10025000D01*
X11975000Y-10015000D02*
X12005000Y-10045000D01*
X12005000Y-10015000D02*
X11975000Y-10045000D01*
X11975000Y-10205000D02*
X12005000Y-10235000D01*
X12005000Y-10205000D02*
X11975000Y-10235000D01*
X12055000Y-11855000D02*
X12085000Y-11885000D01*
X12085000Y-11855000D02*
X12055000Y-11885000D01*
X12085000Y-7445000D02*
X12115000Y-7475000D01*
X12115000Y-7445000D02*
X12085000Y-7475000D01*
X12095946Y-8265211D02*
X12125946Y-8295211D01*
X12125946Y-8265211D02*
X12095946Y-8295211D01*
X12105000Y-11255000D02*
X12135000Y-11285000D01*
X12135000Y-11255000D02*
X12105000Y-11285000D01*
X12115000Y-9545000D02*
X12145000Y-9575000D01*
X12145000Y-9545000D02*
X12115000Y-9575000D01*
X12125000Y-12045000D02*
X12155000Y-12075000D01*
X12155000Y-12045000D02*
X12125000Y-12075000D01*
X12135000Y-8435000D02*
X12165000Y-8465000D01*
X12165000Y-8435000D02*
X12135000Y-8465000D01*
X12145000Y-8745000D02*
X12175000Y-8775000D01*
X12175000Y-8745000D02*
X12145000Y-8775000D01*
X12155000Y-11725000D02*
X12185000Y-11755000D01*
X12185000Y-11725000D02*
X12155000Y-11755000D01*
X12156941Y-8219955D02*
X12186941Y-8249955D01*
X12186941Y-8219955D02*
X12156941Y-8249955D01*
X12161650Y-8075000D02*
X12191650Y-8105000D01*
X12191650Y-8075000D02*
X12161650Y-8105000D01*
X12175000Y-10525000D02*
X12205000Y-10555000D01*
X12205000Y-10525000D02*
X12175000Y-10555000D01*
X12185000Y-10025000D02*
X12215000Y-10055000D01*
X12215000Y-10025000D02*
X12185000Y-10055000D01*
X12195000Y-11345000D02*
X12225000Y-11375000D01*
X12225000Y-11345000D02*
X12195000Y-11375000D01*
X12215000Y-8825000D02*
X12245000Y-8855000D01*
X12245000Y-8825000D02*
X12215000Y-8855000D01*
X12220700Y-10945000D02*
X12250700Y-10975000D01*
X12250700Y-10945000D02*
X12220700Y-10975000D01*
X12225000Y-8555000D02*
X12255000Y-8585000D01*
X12255000Y-8555000D02*
X12225000Y-8585000D01*
X12225000Y-12525000D02*
X12255000Y-12555000D01*
X12255000Y-12525000D02*
X12225000Y-12555000D01*
X12255000Y-11775000D02*
X12285000Y-11805000D01*
X12285000Y-11775000D02*
X12255000Y-11805000D01*
X12268350Y-10795000D02*
X12298350Y-10825000D01*
X12298350Y-10795000D02*
X12268350Y-10825000D01*
X12285000Y-6845000D02*
X12315000Y-6875000D01*
X12315000Y-6845000D02*
X12285000Y-6875000D01*
X12295000Y-10525000D02*
X12325000Y-10555000D01*
X12325000Y-10525000D02*
X12295000Y-10555000D01*
X12301434Y-9983335D02*
X12331434Y-10013335D01*
X12331434Y-9983335D02*
X12301434Y-10013335D01*
X12335000Y-9865000D02*
X12365000Y-9895000D01*
X12365000Y-9865000D02*
X12335000Y-9895000D01*
X12337608Y-10839300D02*
X12367608Y-10869300D01*
X12367608Y-10839300D02*
X12337608Y-10869300D01*
X12345000Y-11115000D02*
X12375000Y-11145000D01*
X12375000Y-11115000D02*
X12345000Y-11145000D01*
X12345000Y-11300850D02*
X12375000Y-11330850D01*
X12375000Y-11300850D02*
X12345000Y-11330850D01*
X12345000Y-12715000D02*
X12375000Y-12745000D01*
X12375000Y-12715000D02*
X12345000Y-12745000D01*
X12346350Y-7360825D02*
X12376350Y-7390825D01*
X12376350Y-7360825D02*
X12346350Y-7390825D01*
X12375000Y-7165000D02*
X12405000Y-7195000D01*
X12405000Y-7165000D02*
X12375000Y-7195000D01*
X12375000Y-11445000D02*
X12405000Y-11475000D01*
X12405000Y-11445000D02*
X12375000Y-11475000D01*
X12395000Y-6595000D02*
X12425000Y-6625000D01*
X12425000Y-6595000D02*
X12395000Y-6625000D01*
X12395000Y-8575000D02*
X12425000Y-8605000D01*
X12425000Y-8575000D02*
X12395000Y-8605000D01*
X12395000Y-10961650D02*
X12425000Y-10991650D01*
X12425000Y-10961650D02*
X12395000Y-10991650D01*
X12415000Y-10645000D02*
X12445000Y-10675000D01*
X12445000Y-10645000D02*
X12415000Y-10675000D01*
X12425000Y-10265000D02*
X12455000Y-10295000D01*
X12455000Y-10265000D02*
X12425000Y-10295000D01*
X12445000Y-8265000D02*
X12475000Y-8295000D01*
X12475000Y-8265000D02*
X12445000Y-8295000D01*
X12446971Y-10075908D02*
X12476971Y-10105908D01*
X12476971Y-10075908D02*
X12446971Y-10105908D01*
X12475000Y-8735000D02*
X12505000Y-8765000D01*
X12505000Y-8735000D02*
X12475000Y-8765000D01*
X12475000Y-9035000D02*
X12505000Y-9065000D01*
X12505000Y-9035000D02*
X12475000Y-9065000D01*
X12478050Y-11035000D02*
X12508050Y-11065000D01*
X12508050Y-11035000D02*
X12478050Y-11065000D01*
X12525000Y-7305050D02*
X12555000Y-7335050D01*
X12555000Y-7305050D02*
X12525000Y-7335050D01*
X12575000Y-10615000D02*
X12605000Y-10645000D01*
X12605000Y-10615000D02*
X12575000Y-10645000D01*
X12575000Y-12725000D02*
X12605000Y-12755000D01*
X12605000Y-12725000D02*
X12575000Y-12755000D01*
X12605000Y-6125000D02*
X12635000Y-6155000D01*
X12635000Y-6125000D02*
X12605000Y-6155000D01*
X12625000Y-10335000D02*
X12655000Y-10365000D01*
X12655000Y-10335000D02*
X12625000Y-10365000D01*
X12647000Y-9177000D02*
X12677000Y-9207000D01*
X12677000Y-9177000D02*
X12647000Y-9207000D01*
X12685000Y-6015000D02*
X12715000Y-6045000D01*
X12715000Y-6015000D02*
X12685000Y-6045000D01*
X12715000Y-7075000D02*
X12745000Y-7105000D01*
X12745000Y-7075000D02*
X12715000Y-7105000D01*
X12715000Y-7365000D02*
X12745000Y-7395000D01*
X12745000Y-7365000D02*
X12715000Y-7395000D01*
X12795000Y-6315000D02*
X12825000Y-6345000D01*
X12825000Y-6315000D02*
X12795000Y-6345000D01*
X12855000Y-12865000D02*
X12885000Y-12895000D01*
X12885000Y-12865000D02*
X12855000Y-12895000D01*
X12925000Y-9175000D02*
X12955000Y-9205000D01*
X12955000Y-9175000D02*
X12925000Y-9205000D01*
X12935000Y-10955000D02*
X12965000Y-10985000D01*
X12965000Y-10955000D02*
X12935000Y-10985000D01*
X12945000Y-11485000D02*
X12975000Y-11515000D01*
X12975000Y-11485000D02*
X12945000Y-11515000D01*
X12955000Y-10465000D02*
X12985000Y-10495000D01*
X12985000Y-10465000D02*
X12955000Y-10495000D01*
X13015000Y-6045000D02*
X13045000Y-6075000D01*
X13045000Y-6045000D02*
X13015000Y-6075000D01*
X13055000Y-9565000D02*
X13085000Y-9595000D01*
X13085000Y-9565000D02*
X13055000Y-9595000D01*
X13065000Y-9115000D02*
X13095000Y-9145000D01*
X13095000Y-9115000D02*
X13065000Y-9145000D01*
X13115000Y-7725000D02*
X13145000Y-7755000D01*
X13145000Y-7725000D02*
X13115000Y-7755000D01*
X13125000Y-6445000D02*
X13155000Y-6475000D01*
X13155000Y-6445000D02*
X13125000Y-6475000D01*
X13155000Y-6055000D02*
X13185000Y-6085000D01*
X13185000Y-6055000D02*
X13155000Y-6085000D01*
X13165000Y-7585000D02*
X13195000Y-7615000D01*
X13195000Y-7585000D02*
X13165000Y-7615000D01*
X13185000Y-10945000D02*
X13215000Y-10975000D01*
X13215000Y-10945000D02*
X13185000Y-10975000D01*
X13195000Y-10565000D02*
X13225000Y-10595000D01*
X13225000Y-10565000D02*
X13195000Y-10595000D01*
X13195000Y-12245000D02*
X13225000Y-12275000D01*
X13225000Y-12245000D02*
X13195000Y-12275000D01*
X13235000Y-6645000D02*
X13265000Y-6675000D01*
X13265000Y-6645000D02*
X13235000Y-6675000D01*
X13245000Y-9815000D02*
X13275000Y-9845000D01*
X13275000Y-9815000D02*
X13245000Y-9845000D01*
X13245000Y-9955000D02*
X13275000Y-9985000D01*
X13275000Y-9955000D02*
X13245000Y-9985000D01*
X13255000Y-10095000D02*
X13285000Y-10125000D01*
X13285000Y-10095000D02*
X13255000Y-10125000D01*
X13305000Y-10565000D02*
X13335000Y-10595000D01*
X13335000Y-10565000D02*
X13305000Y-10595000D01*
X13325000Y-12635000D02*
X13355000Y-12665000D01*
X13355000Y-12635000D02*
X13325000Y-12665000D01*
X13335000Y-5835000D02*
X13365000Y-5865000D01*
X13365000Y-5835000D02*
X13335000Y-5865000D01*
X13345000Y-9115000D02*
X13375000Y-9145000D01*
X13375000Y-9115000D02*
X13345000Y-9145000D01*
X13365000Y-10955000D02*
X13395000Y-10985000D01*
X13395000Y-10955000D02*
X13365000Y-10985000D01*
X13375000Y-6785000D02*
X13405000Y-6815000D01*
X13405000Y-6785000D02*
X13375000Y-6815000D01*
X13375000Y-6985000D02*
X13405000Y-7015000D01*
X13405000Y-6985000D02*
X13375000Y-7015000D01*
X13375000Y-8095000D02*
X13405000Y-8125000D01*
X13405000Y-8095000D02*
X13375000Y-8125000D01*
X13375000Y-9695000D02*
X13405000Y-9725000D01*
X13405000Y-9695000D02*
X13375000Y-9725000D01*
X13375000Y-10215000D02*
X13405000Y-10245000D01*
X13405000Y-10215000D02*
X13375000Y-10245000D01*
X13425000Y-12235000D02*
X13455000Y-12265000D01*
X13455000Y-12235000D02*
X13425000Y-12265000D01*
X13445000Y-11485000D02*
X13475000Y-11515000D01*
X13475000Y-11485000D02*
X13445000Y-11515000D01*
X13445000Y-11631050D02*
X13475000Y-11661050D01*
X13475000Y-11631050D02*
X13445000Y-11661050D01*
X13515000Y-5805000D02*
X13545000Y-5835000D01*
X13545000Y-5805000D02*
X13515000Y-5835000D01*
X13515000Y-5985000D02*
X13545000Y-6015000D01*
X13545000Y-5985000D02*
X13515000Y-6015000D01*
X13515000Y-9695000D02*
X13545000Y-9725000D01*
X13545000Y-9695000D02*
X13515000Y-9725000D01*
X13515000Y-10215000D02*
X13545000Y-10245000D01*
X13545000Y-10215000D02*
X13515000Y-10245000D01*
X13537462Y-6392246D02*
X13567462Y-6422246D01*
X13567462Y-6392246D02*
X13537462Y-6422246D01*
X13645000Y-7085000D02*
X13675000Y-7115000D01*
X13675000Y-7085000D02*
X13645000Y-7115000D01*
X13645000Y-10955000D02*
X13675000Y-10985000D01*
X13675000Y-10955000D02*
X13645000Y-10985000D01*
X13645000Y-11705000D02*
X13675000Y-11735000D01*
X13675000Y-11705000D02*
X13645000Y-11735000D01*
X13655000Y-9115000D02*
X13685000Y-9145000D01*
X13685000Y-9115000D02*
X13655000Y-9145000D01*
X13655000Y-9695000D02*
X13685000Y-9725000D01*
X13685000Y-9695000D02*
X13655000Y-9725000D01*
X13655000Y-10215000D02*
X13685000Y-10245000D01*
X13685000Y-10215000D02*
X13655000Y-10245000D01*
X13665000Y-6925000D02*
X13695000Y-6955000D01*
X13695000Y-6925000D02*
X13665000Y-6955000D01*
X13665000Y-7635000D02*
X13695000Y-7665000D01*
X13695000Y-7635000D02*
X13665000Y-7665000D01*
X13665000Y-7855000D02*
X13695000Y-7885000D01*
X13695000Y-7855000D02*
X13665000Y-7885000D01*
X13665352Y-6467650D02*
X13695352Y-6497650D01*
X13695352Y-6467650D02*
X13665352Y-6497650D01*
X13675000Y-8135000D02*
X13705000Y-8165000D01*
X13705000Y-8135000D02*
X13675000Y-8165000D01*
X13685000Y-10555000D02*
X13715000Y-10585000D01*
X13715000Y-10555000D02*
X13685000Y-10585000D01*
X13705000Y-11565000D02*
X13735000Y-11595000D01*
X13735000Y-11565000D02*
X13705000Y-11595000D01*
X13715000Y-6395000D02*
X13745000Y-6425000D01*
X13745000Y-6395000D02*
X13715000Y-6425000D01*
X13755000Y-5635650D02*
X13785000Y-5665650D01*
X13785000Y-5635650D02*
X13755000Y-5665650D01*
X13785000Y-9815000D02*
X13815000Y-9845000D01*
X13815000Y-9815000D02*
X13785000Y-9845000D01*
X13785000Y-9955000D02*
X13815000Y-9985000D01*
X13815000Y-9955000D02*
X13785000Y-9985000D01*
X13785000Y-10095000D02*
X13815000Y-10125000D01*
X13815000Y-10095000D02*
X13785000Y-10125000D01*
X13825000Y-6115000D02*
X13855000Y-6145000D01*
X13855000Y-6115000D02*
X13825000Y-6145000D01*
X13825000Y-7205000D02*
X13855000Y-7235000D01*
X13855000Y-7205000D02*
X13825000Y-7235000D01*
X13865000Y-12275000D02*
X13895000Y-12305000D01*
X13895000Y-12275000D02*
X13865000Y-12305000D01*
X13895000Y-10445000D02*
X13925000Y-10475000D01*
X13925000Y-10445000D02*
X13895000Y-10475000D01*
X13915000Y-11565000D02*
X13945000Y-11595000D01*
X13945000Y-11565000D02*
X13915000Y-11595000D01*
X13935000Y-7045000D02*
X13965000Y-7075000D01*
X13965000Y-7045000D02*
X13935000Y-7075000D01*
X13965000Y-10955000D02*
X13995000Y-10985000D01*
X13995000Y-10955000D02*
X13965000Y-10985000D01*
X13975000Y-9115000D02*
X14005000Y-9145000D01*
X14005000Y-9115000D02*
X13975000Y-9145000D01*
X13985000Y-5835000D02*
X14015000Y-5865000D01*
X14015000Y-5835000D02*
X13985000Y-5865000D01*
X13985000Y-6435000D02*
X14015000Y-6465000D01*
X14015000Y-6435000D02*
X13985000Y-6465000D01*
X13985000Y-12275000D02*
X14015000Y-12305000D01*
X14015000Y-12275000D02*
X13985000Y-12305000D01*
X14015000Y-10345000D02*
X14045000Y-10375000D01*
X14045000Y-10345000D02*
X14015000Y-10375000D01*
X14035000Y-9725000D02*
X14065000Y-9755000D01*
X14065000Y-9725000D02*
X14035000Y-9755000D01*
X14145000Y-12645000D02*
X14175000Y-12675000D01*
X14175000Y-12645000D02*
X14145000Y-12675000D01*
X14175000Y-6045000D02*
X14205000Y-6075000D01*
X14205000Y-6045000D02*
X14175000Y-6075000D01*
X14175000Y-10205000D02*
X14205000Y-10235000D01*
X14205000Y-10205000D02*
X14175000Y-10235000D01*
X14175000Y-11735000D02*
X14205000Y-11765000D01*
X14205000Y-11735000D02*
X14175000Y-11765000D01*
X14185000Y-7565000D02*
X14215000Y-7595000D01*
X14215000Y-7565000D02*
X14185000Y-7595000D01*
X14185000Y-12195000D02*
X14215000Y-12225000D01*
X14215000Y-12195000D02*
X14185000Y-12225000D01*
X14195000Y-10955000D02*
X14225000Y-10985000D01*
X14225000Y-10955000D02*
X14195000Y-10985000D01*
X14205000Y-6695000D02*
X14235000Y-6725000D01*
X14235000Y-6695000D02*
X14205000Y-6725000D01*
X14205000Y-7735000D02*
X14235000Y-7765000D01*
X14235000Y-7735000D02*
X14205000Y-7765000D01*
X14235000Y-9115000D02*
X14265000Y-9145000D01*
X14265000Y-9115000D02*
X14235000Y-9145000D01*
X14240700Y-9245000D02*
X14270700Y-9275000D01*
X14270700Y-9245000D02*
X14240700Y-9275000D01*
X14240700Y-10135000D02*
X14270700Y-10165000D01*
X14270700Y-10135000D02*
X14240700Y-10165000D01*
X14305000Y-9165000D02*
X14335000Y-9195000D01*
X14335000Y-9165000D02*
X14305000Y-9195000D01*
X14335000Y-11465000D02*
X14365000Y-11495000D01*
X14365000Y-11465000D02*
X14335000Y-11495000D01*
X14355000Y-12745000D02*
X14385000Y-12775000D01*
X14385000Y-12745000D02*
X14355000Y-12775000D01*
X14375000Y-10855000D02*
X14405000Y-10885000D01*
X14405000Y-10855000D02*
X14375000Y-10885000D01*
X14395000Y-9455000D02*
X14425000Y-9485000D01*
X14425000Y-9455000D02*
X14395000Y-9485000D01*
X14395000Y-10515000D02*
X14425000Y-10545000D01*
X14425000Y-10515000D02*
X14395000Y-10545000D01*
X14545000Y-6615000D02*
X14575000Y-6645000D01*
X14575000Y-6615000D02*
X14545000Y-6645000D01*
X14585000Y-7045000D02*
X14615000Y-7075000D01*
X14615000Y-7045000D02*
X14585000Y-7075000D01*
X14605000Y-12555000D02*
X14635000Y-12585000D01*
X14635000Y-12555000D02*
X14605000Y-12585000D01*
X14615000Y-7375000D02*
X14645000Y-7405000D01*
X14645000Y-7375000D02*
X14615000Y-7405000D01*
X14665000Y-6275000D02*
X14695000Y-6305000D01*
X14695000Y-6275000D02*
X14665000Y-6305000D01*
X14665000Y-6475000D02*
X14695000Y-6505000D01*
X14695000Y-6475000D02*
X14665000Y-6505000D01*
X14675000Y-9215000D02*
X14705000Y-9245000D01*
X14705000Y-9215000D02*
X14675000Y-9245000D01*
X14685000Y-12865000D02*
X14715000Y-12895000D01*
X14715000Y-12865000D02*
X14685000Y-12895000D01*
X14695000Y-10525000D02*
X14725000Y-10555000D01*
X14725000Y-10525000D02*
X14695000Y-10555000D01*
X14735000Y-9445000D02*
X14765000Y-9475000D01*
X14765000Y-9445000D02*
X14735000Y-9475000D01*
X14744300Y-6001380D02*
X14774300Y-6031380D01*
X14774300Y-6001380D02*
X14744300Y-6031380D01*
X14765000Y-6375000D02*
X14795000Y-6405000D01*
X14795000Y-6375000D02*
X14765000Y-6405000D01*
X14765000Y-10595000D02*
X14795000Y-10625000D01*
X14795000Y-10595000D02*
X14765000Y-10625000D01*
X14775000Y-11565000D02*
X14805000Y-11595000D01*
X14805000Y-11565000D02*
X14775000Y-11595000D01*
X14815000Y-6065000D02*
X14845000Y-6095000D01*
X14845000Y-6065000D02*
X14815000Y-6095000D01*
X14825000Y-6930700D02*
X14855000Y-6960700D01*
X14855000Y-6930700D02*
X14825000Y-6960700D01*
X14845000Y-7144350D02*
X14875000Y-7174350D01*
X14875000Y-7144350D02*
X14845000Y-7174350D01*
X14845000Y-7275000D02*
X14875000Y-7305000D01*
X14875000Y-7275000D02*
X14845000Y-7305000D01*
X14865000Y-6475000D02*
X14895000Y-6505000D01*
X14895000Y-6475000D02*
X14865000Y-6505000D01*
X14865000Y-11465000D02*
X14895000Y-11495000D01*
X14895000Y-11465000D02*
X14865000Y-11495000D01*
X14885000Y-9085000D02*
X14915000Y-9115000D01*
X14915000Y-9085000D02*
X14885000Y-9115000D01*
X14914350Y-10575000D02*
X14944350Y-10605000D01*
X14944350Y-10575000D02*
X14914350Y-10605000D01*
X14915000Y-9295000D02*
X14945000Y-9325000D01*
X14945000Y-9295000D02*
X14915000Y-9325000D01*
X14934350Y-10345000D02*
X14964350Y-10375000D01*
X14964350Y-10345000D02*
X14934350Y-10375000D01*
X14934350Y-10425000D02*
X14964350Y-10455000D01*
X14964350Y-10425000D02*
X14934350Y-10455000D01*
X14935000Y-6930700D02*
X14965000Y-6960700D01*
X14965000Y-6930700D02*
X14935000Y-6960700D01*
X14944350Y-8975000D02*
X14974350Y-9005000D01*
X14974350Y-8975000D02*
X14944350Y-9005000D01*
X14944350Y-9215000D02*
X14974350Y-9245000D01*
X14974350Y-9215000D02*
X14944350Y-9245000D01*
X14955000Y-10155000D02*
X14985000Y-10185000D01*
X14985000Y-10155000D02*
X14955000Y-10185000D01*
X14955000Y-10915000D02*
X14985000Y-10945000D01*
X14985000Y-10915000D02*
X14955000Y-10945000D01*
X14955000Y-11185000D02*
X14985000Y-11215000D01*
X14985000Y-11185000D02*
X14955000Y-11215000D01*
X14975000Y-8185000D02*
X15005000Y-8215000D01*
X15005000Y-8185000D02*
X14975000Y-8215000D01*
X14995000Y-7725000D02*
X15025000Y-7755000D01*
X15025000Y-7725000D02*
X14995000Y-7755000D01*
X14995000Y-10235000D02*
X15025000Y-10265000D01*
X15025000Y-10235000D02*
X14995000Y-10265000D01*
X14995000Y-11365000D02*
X15025000Y-11395000D01*
X15025000Y-11365000D02*
X14995000Y-11395000D01*
X15025000Y-9695000D02*
X15055000Y-9725000D01*
X15055000Y-9695000D02*
X15025000Y-9725000D01*
X15075000Y-7015000D02*
X15105000Y-7045000D01*
X15105000Y-7015000D02*
X15075000Y-7045000D01*
X15085000Y-8535000D02*
X15115000Y-8565000D01*
X15115000Y-8535000D02*
X15085000Y-8565000D01*
X15095000Y-11595000D02*
X15125000Y-11625000D01*
X15125000Y-11595000D02*
X15095000Y-11625000D01*
X15110998Y-7380945D02*
X15140998Y-7410945D01*
X15140998Y-7380945D02*
X15110998Y-7410945D01*
X15111004Y-10053090D02*
X15141004Y-10083090D01*
X15141004Y-10053090D02*
X15111004Y-10083090D01*
X15135650Y-9099050D02*
X15165650Y-9129050D01*
X15165650Y-9099050D02*
X15135650Y-9129050D01*
X15135650Y-9175000D02*
X15165650Y-9205000D01*
X15165650Y-9175000D02*
X15135650Y-9205000D01*
X15155000Y-10115000D02*
X15185000Y-10145000D01*
X15185000Y-10115000D02*
X15155000Y-10145000D01*
X15164350Y-7435000D02*
X15194350Y-7465000D01*
X15194350Y-7435000D02*
X15164350Y-7465000D01*
X15225000Y-8905000D02*
X15255000Y-8935000D01*
X15255000Y-8905000D02*
X15225000Y-8935000D01*
X15225000Y-11255000D02*
X15255000Y-11285000D01*
X15255000Y-11255000D02*
X15225000Y-11285000D01*
X15228951Y-9750939D02*
X15258951Y-9780939D01*
X15258951Y-9750939D02*
X15228951Y-9780939D01*
X15304350Y-10305000D02*
X15334350Y-10335000D01*
X15334350Y-10305000D02*
X15304350Y-10335000D01*
X15325000Y-8735000D02*
X15355000Y-8765000D01*
X15355000Y-8735000D02*
X15325000Y-8765000D01*
X15347886Y-8422114D02*
X15377886Y-8452114D01*
X15377886Y-8422114D02*
X15347886Y-8452114D01*
X15385000Y-10008950D02*
X15415000Y-10038950D01*
X15415000Y-10008950D02*
X15385000Y-10038950D01*
X15385000Y-10205000D02*
X15415000Y-10235000D01*
X15415000Y-10205000D02*
X15385000Y-10235000D01*
X15385000Y-12285000D02*
X15415000Y-12315000D01*
X15415000Y-12285000D02*
X15385000Y-12315000D01*
X15395000Y-8555000D02*
X15425000Y-8585000D01*
X15425000Y-8555000D02*
X15395000Y-8585000D01*
X15395650Y-10465000D02*
X15425650Y-10495000D01*
X15425650Y-10465000D02*
X15395650Y-10495000D01*
X15405000Y-8725000D02*
X15435000Y-8755000D01*
X15435000Y-8725000D02*
X15405000Y-8755000D01*
X15449950Y-10533225D02*
X15479950Y-10563225D01*
X15479950Y-10533225D02*
X15449950Y-10563225D01*
X15485000Y-9665000D02*
X15515000Y-9695000D01*
X15515000Y-9665000D02*
X15485000Y-9695000D01*
X15502434Y-10591866D02*
X15532434Y-10621866D01*
X15532434Y-10591866D02*
X15502434Y-10621866D01*
X15555000Y-9185000D02*
X15585000Y-9215000D01*
X15585000Y-9185000D02*
X15555000Y-9215000D01*
X15585000Y-11545000D02*
X15615000Y-11575000D01*
X15615000Y-11545000D02*
X15585000Y-11575000D01*
X15635000Y-10965000D02*
X15665000Y-10995000D01*
X15665000Y-10965000D02*
X15635000Y-10995000D01*
X15645000Y-10755000D02*
X15675000Y-10785000D01*
X15675000Y-10755000D02*
X15645000Y-10785000D01*
X15735000Y-8675650D02*
X15765000Y-8705650D01*
X15765000Y-8675650D02*
X15735000Y-8705650D01*
X15755000Y-11815000D02*
X15785000Y-11845000D01*
X15785000Y-11815000D02*
X15755000Y-11845000D01*
X15855000Y-9715000D02*
X15885000Y-9745000D01*
X15885000Y-9715000D02*
X15855000Y-9745000D01*
X15885000Y-9025000D02*
X15915000Y-9055000D01*
X15915000Y-9025000D02*
X15885000Y-9055000D01*
X15925000Y-12505000D02*
X15955000Y-12535000D01*
X15955000Y-12505000D02*
X15925000Y-12535000D01*
X15945000Y-12115000D02*
X15975000Y-12145000D01*
X15975000Y-12115000D02*
X15945000Y-12145000D01*
X16035000Y-11675000D02*
X16065000Y-11705000D01*
X16065000Y-11675000D02*
X16035000Y-11705000D01*
X16045000Y-12385000D02*
X16075000Y-12415000D01*
X16075000Y-12385000D02*
X16045000Y-12415000D01*
X16142114Y-8692114D02*
X16172114Y-8722114D01*
X16172114Y-8692114D02*
X16142114Y-8722114D01*
X16195000Y-9315000D02*
X16225000Y-9345000D01*
X16225000Y-9315000D02*
X16195000Y-9345000D01*
X16425000Y-8915000D02*
X16455000Y-8945000D01*
X16455000Y-8915000D02*
X16425000Y-8945000D01*
D11*
X10887263Y-13446600D02*
X10887263Y-13246600D01*
X10934882Y-13246600D01*
X10963454Y-13256123D01*
X10982501Y-13275171D01*
X10992025Y-13294219D01*
X11001549Y-13332314D01*
X11001549Y-13360885D01*
X10992025Y-13398981D01*
X10982501Y-13418028D01*
X10963454Y-13437076D01*
X10934882Y-13446600D01*
X10887263Y-13446600D01*
X11087263Y-13446600D02*
X11087263Y-13313266D01*
X11087263Y-13351361D02*
X11096787Y-13332314D01*
X11106311Y-13322790D01*
X11125358Y-13313266D01*
X11144406Y-13313266D01*
X11211073Y-13446600D02*
X11211073Y-13313266D01*
X11211073Y-13246600D02*
X11201549Y-13256123D01*
X11211073Y-13265647D01*
X11220596Y-13256123D01*
X11211073Y-13246600D01*
X11211073Y-13265647D01*
X11334882Y-13446600D02*
X11315835Y-13437076D01*
X11306311Y-13418028D01*
X11306311Y-13246600D01*
X11439644Y-13446600D02*
X11420596Y-13437076D01*
X11411073Y-13418028D01*
X11411073Y-13246600D01*
X11668216Y-13446600D02*
X11668216Y-13246600D01*
X11734882Y-13389457D01*
X11801549Y-13246600D01*
X11801549Y-13446600D01*
X11982501Y-13446600D02*
X11982501Y-13341838D01*
X11972977Y-13322790D01*
X11953930Y-13313266D01*
X11915835Y-13313266D01*
X11896787Y-13322790D01*
X11982501Y-13437076D02*
X11963454Y-13446600D01*
X11915835Y-13446600D01*
X11896787Y-13437076D01*
X11887263Y-13418028D01*
X11887263Y-13398981D01*
X11896787Y-13379933D01*
X11915835Y-13370409D01*
X11963454Y-13370409D01*
X11982501Y-13360885D01*
X12077739Y-13313266D02*
X12077739Y-13513266D01*
X12077739Y-13322790D02*
X12096787Y-13313266D01*
X12134882Y-13313266D01*
X12153930Y-13322790D01*
X12163454Y-13332314D01*
X12172977Y-13351361D01*
X12172977Y-13408504D01*
X12163454Y-13427552D01*
X12153930Y-13437076D01*
X12134882Y-13446600D01*
X12096787Y-13446600D01*
X12077739Y-13437076D01*
X12258692Y-13427552D02*
X12268216Y-13437076D01*
X12258692Y-13446600D01*
X12249168Y-13437076D01*
X12258692Y-13427552D01*
X12258692Y-13446600D01*
X12258692Y-13322790D02*
X12268216Y-13332314D01*
X12258692Y-13341838D01*
X12249168Y-13332314D01*
X12258692Y-13322790D01*
X12258692Y-13341838D01*
D12*
X10599644Y-13761123D02*
X10629644Y-13791123D01*
X10629644Y-13761123D02*
X10599644Y-13791123D01*
D11*
X10925358Y-13666600D02*
X10944406Y-13666600D01*
X10963454Y-13676123D01*
X10972978Y-13685647D01*
X10982501Y-13704695D01*
X10992025Y-13742790D01*
X10992025Y-13790409D01*
X10982501Y-13828504D01*
X10972978Y-13847552D01*
X10963454Y-13857076D01*
X10944406Y-13866600D01*
X10925358Y-13866600D01*
X10906311Y-13857076D01*
X10896787Y-13847552D01*
X10887263Y-13828504D01*
X10877739Y-13790409D01*
X10877739Y-13742790D01*
X10887263Y-13704695D01*
X10896787Y-13685647D01*
X10906311Y-13676123D01*
X10925358Y-13666600D01*
X11077739Y-13847552D02*
X11087263Y-13857076D01*
X11077739Y-13866600D01*
X11068216Y-13857076D01*
X11077739Y-13847552D01*
X11077739Y-13866600D01*
X11153930Y-13666600D02*
X11277739Y-13666600D01*
X11211073Y-13742790D01*
X11239644Y-13742790D01*
X11258692Y-13752314D01*
X11268216Y-13761838D01*
X11277739Y-13780885D01*
X11277739Y-13828504D01*
X11268216Y-13847552D01*
X11258692Y-13857076D01*
X11239644Y-13866600D01*
X11182501Y-13866600D01*
X11163454Y-13857076D01*
X11153930Y-13847552D01*
X11401549Y-13666600D02*
X11420596Y-13666600D01*
X11439644Y-13676123D01*
X11449168Y-13685647D01*
X11458692Y-13704695D01*
X11468216Y-13742790D01*
X11468216Y-13790409D01*
X11458692Y-13828504D01*
X11449168Y-13847552D01*
X11439644Y-13857076D01*
X11420596Y-13866600D01*
X11401549Y-13866600D01*
X11382501Y-13857076D01*
X11372977Y-13847552D01*
X11363454Y-13828504D01*
X11353930Y-13790409D01*
X11353930Y-13742790D01*
X11363454Y-13704695D01*
X11372977Y-13685647D01*
X11382501Y-13676123D01*
X11401549Y-13666600D01*
X11592025Y-13666600D02*
X11611073Y-13666600D01*
X11630120Y-13676123D01*
X11639644Y-13685647D01*
X11649168Y-13704695D01*
X11658692Y-13742790D01*
X11658692Y-13790409D01*
X11649168Y-13828504D01*
X11639644Y-13847552D01*
X11630120Y-13857076D01*
X11611073Y-13866600D01*
X11592025Y-13866600D01*
X11572977Y-13857076D01*
X11563454Y-13847552D01*
X11553930Y-13828504D01*
X11544406Y-13790409D01*
X11544406Y-13742790D01*
X11553930Y-13704695D01*
X11563454Y-13685647D01*
X11572977Y-13676123D01*
X11592025Y-13666600D01*
X11744406Y-13866600D02*
X11744406Y-13733266D01*
X11744406Y-13752314D02*
X11753930Y-13742790D01*
X11772977Y-13733266D01*
X11801549Y-13733266D01*
X11820596Y-13742790D01*
X11830120Y-13761838D01*
X11830120Y-13866600D01*
X11830120Y-13761838D02*
X11839644Y-13742790D01*
X11858692Y-13733266D01*
X11887263Y-13733266D01*
X11906311Y-13742790D01*
X11915835Y-13761838D01*
X11915835Y-13866600D01*
X12011073Y-13866600D02*
X12011073Y-13733266D01*
X12011073Y-13752314D02*
X12020596Y-13742790D01*
X12039644Y-13733266D01*
X12068216Y-13733266D01*
X12087263Y-13742790D01*
X12096787Y-13761838D01*
X12096787Y-13866600D01*
X12096787Y-13761838D02*
X12106311Y-13742790D01*
X12125358Y-13733266D01*
X12153930Y-13733266D01*
X12172977Y-13742790D01*
X12182501Y-13761838D01*
X12182501Y-13866600D01*
X12572977Y-13657076D02*
X12401549Y-13914219D01*
X12830120Y-13666600D02*
X12849168Y-13666600D01*
X12868216Y-13676123D01*
X12877739Y-13685647D01*
X12887263Y-13704695D01*
X12896787Y-13742790D01*
X12896787Y-13790409D01*
X12887263Y-13828504D01*
X12877739Y-13847552D01*
X12868216Y-13857076D01*
X12849168Y-13866600D01*
X12830120Y-13866600D01*
X12811073Y-13857076D01*
X12801549Y-13847552D01*
X12792025Y-13828504D01*
X12782501Y-13790409D01*
X12782501Y-13742790D01*
X12792025Y-13704695D01*
X12801549Y-13685647D01*
X12811073Y-13676123D01*
X12830120Y-13666600D01*
X12982501Y-13847552D02*
X12992025Y-13857076D01*
X12982501Y-13866600D01*
X12972977Y-13857076D01*
X12982501Y-13847552D01*
X12982501Y-13866600D01*
X13115835Y-13666600D02*
X13134882Y-13666600D01*
X13153930Y-13676123D01*
X13163454Y-13685647D01*
X13172977Y-13704695D01*
X13182501Y-13742790D01*
X13182501Y-13790409D01*
X13172977Y-13828504D01*
X13163454Y-13847552D01*
X13153930Y-13857076D01*
X13134882Y-13866600D01*
X13115835Y-13866600D01*
X13096787Y-13857076D01*
X13087263Y-13847552D01*
X13077739Y-13828504D01*
X13068216Y-13790409D01*
X13068216Y-13742790D01*
X13077739Y-13704695D01*
X13087263Y-13685647D01*
X13096787Y-13676123D01*
X13115835Y-13666600D01*
X13372977Y-13866600D02*
X13258692Y-13866600D01*
X13315835Y-13866600D02*
X13315835Y-13666600D01*
X13296787Y-13695171D01*
X13277739Y-13714219D01*
X13258692Y-13723742D01*
X13563454Y-13866600D02*
X13449168Y-13866600D01*
X13506311Y-13866600D02*
X13506311Y-13666600D01*
X13487263Y-13695171D01*
X13468216Y-13714219D01*
X13449168Y-13723742D01*
X13677739Y-13752314D02*
X13658692Y-13742790D01*
X13649168Y-13733266D01*
X13639644Y-13714219D01*
X13639644Y-13704695D01*
X13649168Y-13685647D01*
X13658692Y-13676123D01*
X13677739Y-13666600D01*
X13715835Y-13666600D01*
X13734882Y-13676123D01*
X13744406Y-13685647D01*
X13753930Y-13704695D01*
X13753930Y-13714219D01*
X13744406Y-13733266D01*
X13734882Y-13742790D01*
X13715835Y-13752314D01*
X13677739Y-13752314D01*
X13658692Y-13761838D01*
X13649168Y-13771361D01*
X13639644Y-13790409D01*
X13639644Y-13828504D01*
X13649168Y-13847552D01*
X13658692Y-13857076D01*
X13677739Y-13866600D01*
X13715835Y-13866600D01*
X13734882Y-13857076D01*
X13744406Y-13847552D01*
X13753930Y-13828504D01*
X13753930Y-13790409D01*
X13744406Y-13771361D01*
X13734882Y-13761838D01*
X13715835Y-13752314D01*
X13830120Y-13666600D02*
X13830120Y-13704695D01*
X13906311Y-13666600D02*
X13906311Y-13704695D01*
X14201549Y-13942790D02*
X14192025Y-13933266D01*
X14172977Y-13904695D01*
X14163454Y-13885647D01*
X14153930Y-13857076D01*
X14144406Y-13809457D01*
X14144406Y-13771361D01*
X14153930Y-13723742D01*
X14163454Y-13695171D01*
X14172977Y-13676123D01*
X14192025Y-13647552D01*
X14201549Y-13638028D01*
X14268216Y-13685647D02*
X14277739Y-13676123D01*
X14296787Y-13666600D01*
X14344406Y-13666600D01*
X14363454Y-13676123D01*
X14372977Y-13685647D01*
X14382501Y-13704695D01*
X14382501Y-13723742D01*
X14372977Y-13752314D01*
X14258692Y-13866600D01*
X14382501Y-13866600D01*
X14449168Y-13666600D02*
X14572977Y-13666600D01*
X14506311Y-13742790D01*
X14534882Y-13742790D01*
X14553930Y-13752314D01*
X14563454Y-13761838D01*
X14572977Y-13780885D01*
X14572977Y-13828504D01*
X14563454Y-13847552D01*
X14553930Y-13857076D01*
X14534882Y-13866600D01*
X14477739Y-13866600D01*
X14458692Y-13857076D01*
X14449168Y-13847552D01*
X14687263Y-13752314D02*
X14668216Y-13742790D01*
X14658692Y-13733266D01*
X14649168Y-13714219D01*
X14649168Y-13704695D01*
X14658692Y-13685647D01*
X14668216Y-13676123D01*
X14687263Y-13666600D01*
X14725358Y-13666600D01*
X14744406Y-13676123D01*
X14753930Y-13685647D01*
X14763454Y-13704695D01*
X14763454Y-13714219D01*
X14753930Y-13733266D01*
X14744406Y-13742790D01*
X14725358Y-13752314D01*
X14687263Y-13752314D01*
X14668216Y-13761838D01*
X14658692Y-13771361D01*
X14649168Y-13790409D01*
X14649168Y-13828504D01*
X14658692Y-13847552D01*
X14668216Y-13857076D01*
X14687263Y-13866600D01*
X14725358Y-13866600D01*
X14744406Y-13857076D01*
X14753930Y-13847552D01*
X14763454Y-13828504D01*
X14763454Y-13790409D01*
X14753930Y-13771361D01*
X14744406Y-13761838D01*
X14725358Y-13752314D01*
X15001549Y-13866600D02*
X15001549Y-13666600D01*
X15087263Y-13866600D02*
X15087263Y-13761838D01*
X15077739Y-13742790D01*
X15058692Y-13733266D01*
X15030120Y-13733266D01*
X15011073Y-13742790D01*
X15001549Y-13752314D01*
X15211073Y-13866600D02*
X15192025Y-13857076D01*
X15182501Y-13847552D01*
X15172977Y-13828504D01*
X15172977Y-13771361D01*
X15182501Y-13752314D01*
X15192025Y-13742790D01*
X15211073Y-13733266D01*
X15239644Y-13733266D01*
X15258692Y-13742790D01*
X15268216Y-13752314D01*
X15277739Y-13771361D01*
X15277739Y-13828504D01*
X15268216Y-13847552D01*
X15258692Y-13857076D01*
X15239644Y-13866600D01*
X15211073Y-13866600D01*
X15392025Y-13866600D02*
X15372977Y-13857076D01*
X15363454Y-13838028D01*
X15363454Y-13666600D01*
X15544406Y-13857076D02*
X15525358Y-13866600D01*
X15487263Y-13866600D01*
X15468216Y-13857076D01*
X15458692Y-13838028D01*
X15458692Y-13761838D01*
X15468216Y-13742790D01*
X15487263Y-13733266D01*
X15525358Y-13733266D01*
X15544406Y-13742790D01*
X15553930Y-13761838D01*
X15553930Y-13780885D01*
X15458692Y-13799933D01*
X15630120Y-13857076D02*
X15649168Y-13866600D01*
X15687263Y-13866600D01*
X15706311Y-13857076D01*
X15715835Y-13838028D01*
X15715835Y-13828504D01*
X15706311Y-13809457D01*
X15687263Y-13799933D01*
X15658692Y-13799933D01*
X15639644Y-13790409D01*
X15630120Y-13771361D01*
X15630120Y-13761838D01*
X15639644Y-13742790D01*
X15658692Y-13733266D01*
X15687263Y-13733266D01*
X15706311Y-13742790D01*
X15782501Y-13942790D02*
X15792025Y-13933266D01*
X15811073Y-13904695D01*
X15820596Y-13885647D01*
X15830120Y-13857076D01*
X15839644Y-13809457D01*
X15839644Y-13771361D01*
X15830120Y-13723742D01*
X15820596Y-13695171D01*
X15811073Y-13676123D01*
X15792025Y-13647552D01*
X15782501Y-13638028D01*
M02*
