%FSLAX45Y45*%
G04 Gerber Fmt 4.5, Leading zero omitted, Abs format (unit mm)*
G04 Created by KiCad (PCBNEW (6.0.6)) date 2022-10-05 22:34:14*
%MOMM*%
%LPD*%
G01*
G04 APERTURE LIST*
%TA.AperFunction,Profile*%
%ADD10C,0.300000*%
%TD*%
%ADD11C,0.200000*%
%ADD12C,0.065000*%
%ADD13C,0.430000*%
G04 APERTURE END LIST*
D10*
X14165534Y-12948374D02*
X14032297Y-12867136D01*
X15352915Y-12504058D02*
X15297854Y-12533234D01*
X16335806Y-12451747D02*
X16306145Y-12496456D01*
X11552212Y-10172466D02*
X11523596Y-10086528D01*
X11851240Y-8498668D02*
X11880884Y-8472019D01*
X11017384Y-11924848D02*
X11088428Y-11753956D01*
X12029609Y-12514532D02*
X11995982Y-12501872D01*
X10947073Y-8039519D02*
X10986286Y-8044952D01*
X12304391Y-12857536D02*
X12217735Y-12723640D01*
X10961246Y-12275545D02*
X10954519Y-12195929D01*
X15658981Y-8543221D02*
X15726076Y-8536117D01*
X13931621Y-12814823D02*
X13845763Y-12783523D01*
X16294406Y-11804972D02*
X16350308Y-11936806D01*
X15120967Y-12752506D02*
X15030424Y-12882950D01*
X11573614Y-10327419D02*
X11568479Y-10251925D01*
X14702846Y-13113038D02*
X14613473Y-13120688D01*
X15866044Y-12637187D02*
X15776188Y-12607949D01*
X13584295Y-12768272D02*
X13524412Y-12782462D01*
X16629898Y-8107739D02*
X16656001Y-8134949D01*
X14869585Y-13042586D02*
X14780369Y-13090543D01*
X10653353Y-8261287D02*
X10669792Y-8206291D01*
X12002585Y-7545233D02*
X12016994Y-7121818D01*
X14520308Y-13113476D02*
X14431405Y-13091417D01*
X14032297Y-12867136D02*
X13931621Y-12814823D01*
X16350308Y-11936806D02*
X16383200Y-12030143D01*
X10991626Y-9234189D02*
X10861229Y-9013155D01*
X10958407Y-12119563D02*
X10976701Y-12037964D01*
X16342736Y-8052491D02*
X16398874Y-8041315D01*
X15838849Y-10090492D02*
X15806785Y-10184392D01*
X10788839Y-8071397D02*
X10865615Y-8045264D01*
X11531918Y-12622826D02*
X11428012Y-12653033D01*
X16179151Y-12612896D02*
X16126370Y-12640387D01*
X16709750Y-8379368D02*
X16695542Y-8515684D01*
X10644986Y-8322529D02*
X10653353Y-8261287D01*
X16100410Y-8265440D02*
X16215649Y-8147921D01*
X15450889Y-8441532D02*
X15492523Y-8485803D01*
X10979558Y-12350932D02*
X10961246Y-12275545D01*
X11651045Y-8543095D02*
X11704652Y-8546358D01*
X15943489Y-12655031D02*
X15866044Y-12637187D01*
X15186298Y-12655967D02*
X15120967Y-12752506D01*
X11428012Y-12653033D02*
X11351098Y-12662180D01*
X11564779Y-10410390D02*
X11573614Y-10327419D01*
X13397185Y-12831824D02*
X13255562Y-12910424D01*
X13524412Y-12782462D02*
X13397185Y-12831824D01*
X13845763Y-12783523D02*
X13757014Y-12765305D01*
X11022754Y-8056286D02*
X11060345Y-8081138D01*
X15343001Y-7121818D02*
X15352757Y-7514542D01*
X15794311Y-10430965D02*
X15827561Y-10558210D01*
X14780369Y-13090543D02*
X14702846Y-13113038D01*
X15917950Y-8441203D02*
X15997237Y-8369456D01*
X16239424Y-9435007D02*
X16027054Y-9742620D01*
X15671438Y-12567251D02*
X15568234Y-12527444D01*
X16401230Y-12241624D02*
X16393160Y-12298166D01*
X16656001Y-8134949D02*
X16676669Y-8165921D01*
X11258182Y-8271340D02*
X11388112Y-8402427D01*
X12658993Y-13116395D02*
X12607367Y-13101095D01*
X15782494Y-10351413D02*
X15794311Y-10430965D01*
X11995982Y-12501872D02*
X11959468Y-12495785D01*
X13095145Y-13006432D02*
X12974659Y-13067440D01*
X15352757Y-7514542D02*
X15370726Y-8059048D01*
X12544627Y-13072903D02*
X12457892Y-13021528D01*
X11918413Y-12496378D02*
X11816068Y-12518263D01*
X15885572Y-9986929D02*
X15838849Y-10090492D01*
X15492523Y-8485803D02*
X15541525Y-8517729D01*
X14613473Y-13120688D02*
X14520308Y-13113476D01*
X15413390Y-12494348D02*
X15352915Y-12504058D01*
X11568479Y-10251925D02*
X11552212Y-10172466D01*
X11539006Y-10526926D02*
X11564779Y-10410390D01*
X12136402Y-12609136D02*
X12095783Y-12563365D01*
X16403525Y-12182974D02*
X16401230Y-12241624D01*
X11424296Y-9885115D02*
X11351128Y-9764601D01*
X16584065Y-8841748D02*
X16484858Y-9042924D01*
X15343006Y-7121818D02*
G75*
G03*
X13668430Y-5458855I-1661546J1468D01*
G01*
X13255562Y-12910424D02*
X13095145Y-13006432D01*
X11704652Y-8546358D02*
X11745397Y-8543346D01*
X11497340Y-10673856D02*
X11539006Y-10526926D01*
X12457892Y-13021528D02*
X12381134Y-12953278D01*
X16360283Y-12403555D02*
X16335806Y-12451747D01*
X11008642Y-12420977D02*
X10979558Y-12350932D01*
X10861229Y-9013155D02*
X10760849Y-8809870D01*
X11498074Y-8487162D02*
X11549200Y-8514403D01*
X15806785Y-10184392D02*
X15788348Y-10270672D01*
X10865615Y-8045264D02*
X10947073Y-8039519D01*
X16564240Y-8065901D02*
X16629898Y-8107739D01*
X15997237Y-8369456D02*
X16100410Y-8265440D01*
X15597239Y-8536975D02*
X15658981Y-8543221D01*
X12381134Y-12953278D02*
X12304391Y-12857536D01*
X16398874Y-8041315D02*
X16485343Y-8042906D01*
X11444855Y-8450133D02*
X11498074Y-8487162D01*
X11351098Y-12662180D02*
X11288153Y-12653080D01*
X11959468Y-12495785D02*
X11918413Y-12496378D01*
X11675771Y-12568750D02*
X11531918Y-12622826D01*
X11523596Y-10086528D02*
X11481370Y-9991581D01*
X15568234Y-12527444D02*
X15483686Y-12502637D01*
X11549200Y-8514403D02*
X11599717Y-8532747D01*
X10644644Y-8389828D02*
X10644986Y-8322529D01*
X11388112Y-8402427D02*
X11444855Y-8450133D01*
X16484858Y-9042924D02*
X16368463Y-9243493D01*
X10694378Y-8157740D02*
X10727146Y-8115841D01*
X11117261Y-8129984D02*
X11258182Y-8271340D01*
X16692796Y-8206415D02*
X16703645Y-8256932D01*
X15797840Y-8515356D02*
X15854242Y-8487552D01*
X16383200Y-12030143D02*
X16398998Y-12105404D01*
X15297854Y-12533234D02*
X15243794Y-12583378D01*
X11217032Y-12626026D02*
X11152714Y-12588200D01*
X11440861Y-10848025D02*
X11497340Y-10673856D01*
X16126370Y-12640387D02*
X16071154Y-12656591D01*
X16695542Y-8515684D02*
X16661575Y-8648407D01*
X15776188Y-12607949D02*
X15671438Y-12567251D01*
X12974659Y-13067440D02*
X12875000Y-13101751D01*
X10755449Y-8091457D02*
X10788839Y-8071397D01*
X11818738Y-8519461D02*
X11851240Y-8498668D01*
X12095783Y-12563365D02*
X12061985Y-12533579D01*
X16109650Y-11359048D02*
X16294406Y-11804972D01*
X10954519Y-12195929D02*
X10958407Y-12119563D01*
X10727146Y-8115841D02*
X10755449Y-8091457D01*
X15541525Y-8517729D02*
X15597239Y-8536975D01*
X10652230Y-8462950D02*
X10644644Y-8389828D01*
X13642570Y-12760811D02*
X13584295Y-12768272D01*
X14949794Y-12976505D02*
X14869585Y-13042586D01*
X14431405Y-13091417D02*
X14316431Y-13036466D01*
X16215649Y-8147921D02*
X16289036Y-8082481D01*
X11816068Y-12518263D02*
X11675771Y-12568750D01*
X16398998Y-12105404D02*
X16403525Y-12182974D01*
X15417325Y-8385238D02*
X15450889Y-8441532D01*
X11088428Y-11753956D02*
X11287811Y-11265460D01*
X14316431Y-13036466D02*
X14165534Y-12948374D01*
X16703645Y-8256932D02*
X16709750Y-8379368D01*
X12607367Y-13101095D02*
X12544627Y-13072903D01*
X11971318Y-8286530D02*
X11984273Y-8156678D01*
X16011022Y-12661493D02*
X15943489Y-12655031D01*
X12777025Y-13117597D02*
X12711539Y-13121123D01*
X11745397Y-8543346D02*
X11783426Y-8534370D01*
X16485343Y-8042906D02*
X16564240Y-8065901D01*
X15726076Y-8536117D02*
X15797840Y-8515356D01*
X15392488Y-8317252D02*
X15417325Y-8385238D01*
X16071154Y-12656591D02*
X16011022Y-12661493D01*
X11152714Y-12588200D02*
X11096017Y-12540697D01*
X12217735Y-12723640D02*
X12136402Y-12609136D01*
X15947954Y-9871659D02*
X15885572Y-9986929D01*
X16661575Y-8648407D02*
X16584065Y-8841748D01*
X16271489Y-12537371D02*
X16231993Y-12574151D01*
X11907641Y-8439564D02*
X11952241Y-8357389D01*
X11984273Y-8156678D02*
X12002585Y-7545233D01*
X15030424Y-12882950D02*
X14949794Y-12976505D01*
X15483686Y-12502637D02*
X15413390Y-12494348D01*
X10667716Y-8541721D02*
X10652230Y-8462950D01*
X11481370Y-9991581D02*
X11424296Y-9885115D01*
X11060345Y-8081138D02*
X11117261Y-8129984D01*
X12061985Y-12533579D02*
X12029609Y-12514532D01*
X13699925Y-12759872D02*
X13642570Y-12760811D01*
X13757014Y-12765305D02*
X13699925Y-12759872D01*
X11952241Y-8357389D02*
X11971318Y-8286530D01*
X12875000Y-13101751D02*
X12777025Y-13117597D01*
X16306145Y-12496456D02*
X16271489Y-12537371D01*
X15788348Y-10270672D02*
X15782494Y-10351413D01*
X11151544Y-9471351D02*
X10991626Y-9234189D01*
X11288153Y-12653080D02*
X11217032Y-12626026D01*
X15945331Y-10918774D02*
X16109650Y-11359048D01*
X10669792Y-8206291D02*
X10694378Y-8157740D01*
X15827561Y-10558210D02*
X15945331Y-10918774D01*
X11047730Y-12484591D02*
X11008642Y-12420977D01*
X15381451Y-8230519D02*
X15392488Y-8317252D01*
X16027054Y-9742620D02*
X15947954Y-9871659D01*
X15370726Y-8059048D02*
X15381451Y-8230519D01*
X10691023Y-8625927D02*
X10667716Y-8541721D01*
X11351128Y-9764601D02*
X11151544Y-9471351D01*
X16368463Y-9243493D02*
X16239424Y-9435007D01*
X13668430Y-5458855D02*
G75*
G03*
X12016994Y-7121818I11590J-1662985D01*
G01*
X10986286Y-8044952D02*
X11022754Y-8056286D01*
X11783426Y-8534370D02*
X11818738Y-8519461D01*
X11096017Y-12540697D02*
X11047730Y-12484591D01*
X11599717Y-8532747D02*
X11651045Y-8543095D01*
X15854242Y-8487552D02*
X15917950Y-8441203D01*
X10976701Y-12037964D02*
X11017384Y-11924848D01*
X11287811Y-11265460D02*
X11440861Y-10848025D01*
X15243794Y-12583378D02*
X15186298Y-12655967D01*
X10760849Y-8809870D02*
X10691023Y-8625927D01*
X16231993Y-12574151D02*
X16179151Y-12612896D01*
X16676669Y-8165921D02*
X16692796Y-8206415D01*
X16379470Y-12352258D02*
X16360283Y-12403555D01*
X11880884Y-8472019D02*
X11907641Y-8439564D01*
X16393160Y-12298166D02*
X16379470Y-12352258D01*
X16289036Y-8082481D02*
X16342736Y-8052491D01*
X12711539Y-13121123D02*
X12658993Y-13116395D01*
D11*
D12*
X13358500Y-6157800D02*
X13423500Y-6222800D01*
X13423500Y-6157800D02*
X13358500Y-6222800D01*
X13936500Y-6157800D02*
X14001500Y-6222800D01*
X14001500Y-6157800D02*
X13936500Y-6222800D01*
D13*
X13275000Y-7060000D02*
G75*
G03*
X13275000Y-7060000I-215000J0D01*
G01*
X14505000Y-7060000D02*
G75*
G03*
X14505000Y-7060000I-215000J0D01*
G01*
D11*
X10887263Y-13446600D02*
X10887263Y-13246600D01*
X10934882Y-13246600D01*
X10963454Y-13256123D01*
X10982501Y-13275171D01*
X10992025Y-13294219D01*
X11001549Y-13332314D01*
X11001549Y-13360885D01*
X10992025Y-13398981D01*
X10982501Y-13418028D01*
X10963454Y-13437076D01*
X10934882Y-13446600D01*
X10887263Y-13446600D01*
X11087263Y-13446600D02*
X11087263Y-13313266D01*
X11087263Y-13351361D02*
X11096787Y-13332314D01*
X11106311Y-13322790D01*
X11125358Y-13313266D01*
X11144406Y-13313266D01*
X11211073Y-13446600D02*
X11211073Y-13313266D01*
X11211073Y-13246600D02*
X11201549Y-13256123D01*
X11211073Y-13265647D01*
X11220596Y-13256123D01*
X11211073Y-13246600D01*
X11211073Y-13265647D01*
X11334882Y-13446600D02*
X11315835Y-13437076D01*
X11306311Y-13418028D01*
X11306311Y-13246600D01*
X11439644Y-13446600D02*
X11420596Y-13437076D01*
X11411073Y-13418028D01*
X11411073Y-13246600D01*
X11668216Y-13446600D02*
X11668216Y-13246600D01*
X11734882Y-13389457D01*
X11801549Y-13246600D01*
X11801549Y-13446600D01*
X11982501Y-13446600D02*
X11982501Y-13341838D01*
X11972977Y-13322790D01*
X11953930Y-13313266D01*
X11915835Y-13313266D01*
X11896787Y-13322790D01*
X11982501Y-13437076D02*
X11963454Y-13446600D01*
X11915835Y-13446600D01*
X11896787Y-13437076D01*
X11887263Y-13418028D01*
X11887263Y-13398981D01*
X11896787Y-13379933D01*
X11915835Y-13370409D01*
X11963454Y-13370409D01*
X11982501Y-13360885D01*
X12077739Y-13313266D02*
X12077739Y-13513266D01*
X12077739Y-13322790D02*
X12096787Y-13313266D01*
X12134882Y-13313266D01*
X12153930Y-13322790D01*
X12163454Y-13332314D01*
X12172977Y-13351361D01*
X12172977Y-13408504D01*
X12163454Y-13427552D01*
X12153930Y-13437076D01*
X12134882Y-13446600D01*
X12096787Y-13446600D01*
X12077739Y-13437076D01*
X12258692Y-13427552D02*
X12268216Y-13437076D01*
X12258692Y-13446600D01*
X12249168Y-13437076D01*
X12258692Y-13427552D01*
X12258692Y-13446600D01*
X12258692Y-13322790D02*
X12268216Y-13332314D01*
X12258692Y-13341838D01*
X12249168Y-13332314D01*
X12258692Y-13322790D01*
X12258692Y-13341838D01*
D12*
X10564644Y-13743623D02*
X10629644Y-13808623D01*
X10629644Y-13743623D02*
X10564644Y-13808623D01*
D11*
X10925358Y-13666600D02*
X10944406Y-13666600D01*
X10963454Y-13676123D01*
X10972978Y-13685647D01*
X10982501Y-13704695D01*
X10992025Y-13742790D01*
X10992025Y-13790409D01*
X10982501Y-13828504D01*
X10972978Y-13847552D01*
X10963454Y-13857076D01*
X10944406Y-13866600D01*
X10925358Y-13866600D01*
X10906311Y-13857076D01*
X10896787Y-13847552D01*
X10887263Y-13828504D01*
X10877739Y-13790409D01*
X10877739Y-13742790D01*
X10887263Y-13704695D01*
X10896787Y-13685647D01*
X10906311Y-13676123D01*
X10925358Y-13666600D01*
X11077739Y-13847552D02*
X11087263Y-13857076D01*
X11077739Y-13866600D01*
X11068216Y-13857076D01*
X11077739Y-13847552D01*
X11077739Y-13866600D01*
X11258692Y-13666600D02*
X11220596Y-13666600D01*
X11201549Y-13676123D01*
X11192025Y-13685647D01*
X11172978Y-13714219D01*
X11163454Y-13752314D01*
X11163454Y-13828504D01*
X11172978Y-13847552D01*
X11182501Y-13857076D01*
X11201549Y-13866600D01*
X11239644Y-13866600D01*
X11258692Y-13857076D01*
X11268216Y-13847552D01*
X11277739Y-13828504D01*
X11277739Y-13780885D01*
X11268216Y-13761838D01*
X11258692Y-13752314D01*
X11239644Y-13742790D01*
X11201549Y-13742790D01*
X11182501Y-13752314D01*
X11172978Y-13761838D01*
X11163454Y-13780885D01*
X11458692Y-13666600D02*
X11363454Y-13666600D01*
X11353930Y-13761838D01*
X11363454Y-13752314D01*
X11382501Y-13742790D01*
X11430120Y-13742790D01*
X11449168Y-13752314D01*
X11458692Y-13761838D01*
X11468216Y-13780885D01*
X11468216Y-13828504D01*
X11458692Y-13847552D01*
X11449168Y-13857076D01*
X11430120Y-13866600D01*
X11382501Y-13866600D01*
X11363454Y-13857076D01*
X11353930Y-13847552D01*
X11592025Y-13666600D02*
X11611073Y-13666600D01*
X11630120Y-13676123D01*
X11639644Y-13685647D01*
X11649168Y-13704695D01*
X11658692Y-13742790D01*
X11658692Y-13790409D01*
X11649168Y-13828504D01*
X11639644Y-13847552D01*
X11630120Y-13857076D01*
X11611073Y-13866600D01*
X11592025Y-13866600D01*
X11572977Y-13857076D01*
X11563454Y-13847552D01*
X11553930Y-13828504D01*
X11544406Y-13790409D01*
X11544406Y-13742790D01*
X11553930Y-13704695D01*
X11563454Y-13685647D01*
X11572977Y-13676123D01*
X11592025Y-13666600D01*
X11744406Y-13866600D02*
X11744406Y-13733266D01*
X11744406Y-13752314D02*
X11753930Y-13742790D01*
X11772977Y-13733266D01*
X11801549Y-13733266D01*
X11820596Y-13742790D01*
X11830120Y-13761838D01*
X11830120Y-13866600D01*
X11830120Y-13761838D02*
X11839644Y-13742790D01*
X11858692Y-13733266D01*
X11887263Y-13733266D01*
X11906311Y-13742790D01*
X11915835Y-13761838D01*
X11915835Y-13866600D01*
X12011073Y-13866600D02*
X12011073Y-13733266D01*
X12011073Y-13752314D02*
X12020596Y-13742790D01*
X12039644Y-13733266D01*
X12068216Y-13733266D01*
X12087263Y-13742790D01*
X12096787Y-13761838D01*
X12096787Y-13866600D01*
X12096787Y-13761838D02*
X12106311Y-13742790D01*
X12125358Y-13733266D01*
X12153930Y-13733266D01*
X12172977Y-13742790D01*
X12182501Y-13761838D01*
X12182501Y-13866600D01*
X12572977Y-13657076D02*
X12401549Y-13914219D01*
X12830120Y-13666600D02*
X12849168Y-13666600D01*
X12868216Y-13676123D01*
X12877739Y-13685647D01*
X12887263Y-13704695D01*
X12896787Y-13742790D01*
X12896787Y-13790409D01*
X12887263Y-13828504D01*
X12877739Y-13847552D01*
X12868216Y-13857076D01*
X12849168Y-13866600D01*
X12830120Y-13866600D01*
X12811073Y-13857076D01*
X12801549Y-13847552D01*
X12792025Y-13828504D01*
X12782501Y-13790409D01*
X12782501Y-13742790D01*
X12792025Y-13704695D01*
X12801549Y-13685647D01*
X12811073Y-13676123D01*
X12830120Y-13666600D01*
X12982501Y-13847552D02*
X12992025Y-13857076D01*
X12982501Y-13866600D01*
X12972977Y-13857076D01*
X12982501Y-13847552D01*
X12982501Y-13866600D01*
X13115835Y-13666600D02*
X13134882Y-13666600D01*
X13153930Y-13676123D01*
X13163454Y-13685647D01*
X13172977Y-13704695D01*
X13182501Y-13742790D01*
X13182501Y-13790409D01*
X13172977Y-13828504D01*
X13163454Y-13847552D01*
X13153930Y-13857076D01*
X13134882Y-13866600D01*
X13115835Y-13866600D01*
X13096787Y-13857076D01*
X13087263Y-13847552D01*
X13077739Y-13828504D01*
X13068216Y-13790409D01*
X13068216Y-13742790D01*
X13077739Y-13704695D01*
X13087263Y-13685647D01*
X13096787Y-13676123D01*
X13115835Y-13666600D01*
X13258692Y-13685647D02*
X13268216Y-13676123D01*
X13287263Y-13666600D01*
X13334882Y-13666600D01*
X13353930Y-13676123D01*
X13363454Y-13685647D01*
X13372977Y-13704695D01*
X13372977Y-13723742D01*
X13363454Y-13752314D01*
X13249168Y-13866600D01*
X13372977Y-13866600D01*
X13553930Y-13666600D02*
X13458692Y-13666600D01*
X13449168Y-13761838D01*
X13458692Y-13752314D01*
X13477739Y-13742790D01*
X13525358Y-13742790D01*
X13544406Y-13752314D01*
X13553930Y-13761838D01*
X13563454Y-13780885D01*
X13563454Y-13828504D01*
X13553930Y-13847552D01*
X13544406Y-13857076D01*
X13525358Y-13866600D01*
X13477739Y-13866600D01*
X13458692Y-13857076D01*
X13449168Y-13847552D01*
X13734882Y-13666600D02*
X13696787Y-13666600D01*
X13677739Y-13676123D01*
X13668216Y-13685647D01*
X13649168Y-13714219D01*
X13639644Y-13752314D01*
X13639644Y-13828504D01*
X13649168Y-13847552D01*
X13658692Y-13857076D01*
X13677739Y-13866600D01*
X13715835Y-13866600D01*
X13734882Y-13857076D01*
X13744406Y-13847552D01*
X13753930Y-13828504D01*
X13753930Y-13780885D01*
X13744406Y-13761838D01*
X13734882Y-13752314D01*
X13715835Y-13742790D01*
X13677739Y-13742790D01*
X13658692Y-13752314D01*
X13649168Y-13761838D01*
X13639644Y-13780885D01*
X13830120Y-13666600D02*
X13830120Y-13704695D01*
X13906311Y-13666600D02*
X13906311Y-13704695D01*
X14201549Y-13942790D02*
X14192025Y-13933266D01*
X14172977Y-13904695D01*
X14163454Y-13885647D01*
X14153930Y-13857076D01*
X14144406Y-13809457D01*
X14144406Y-13771361D01*
X14153930Y-13723742D01*
X14163454Y-13695171D01*
X14172977Y-13676123D01*
X14192025Y-13647552D01*
X14201549Y-13638028D01*
X14268216Y-13685647D02*
X14277739Y-13676123D01*
X14296787Y-13666600D01*
X14344406Y-13666600D01*
X14363454Y-13676123D01*
X14372977Y-13685647D01*
X14382501Y-13704695D01*
X14382501Y-13723742D01*
X14372977Y-13752314D01*
X14258692Y-13866600D01*
X14382501Y-13866600D01*
X14620596Y-13866600D02*
X14620596Y-13666600D01*
X14706311Y-13866600D02*
X14706311Y-13761838D01*
X14696787Y-13742790D01*
X14677739Y-13733266D01*
X14649168Y-13733266D01*
X14630120Y-13742790D01*
X14620596Y-13752314D01*
X14830120Y-13866600D02*
X14811073Y-13857076D01*
X14801549Y-13847552D01*
X14792025Y-13828504D01*
X14792025Y-13771361D01*
X14801549Y-13752314D01*
X14811073Y-13742790D01*
X14830120Y-13733266D01*
X14858692Y-13733266D01*
X14877739Y-13742790D01*
X14887263Y-13752314D01*
X14896787Y-13771361D01*
X14896787Y-13828504D01*
X14887263Y-13847552D01*
X14877739Y-13857076D01*
X14858692Y-13866600D01*
X14830120Y-13866600D01*
X15011073Y-13866600D02*
X14992025Y-13857076D01*
X14982501Y-13838028D01*
X14982501Y-13666600D01*
X15163454Y-13857076D02*
X15144406Y-13866600D01*
X15106311Y-13866600D01*
X15087263Y-13857076D01*
X15077739Y-13838028D01*
X15077739Y-13761838D01*
X15087263Y-13742790D01*
X15106311Y-13733266D01*
X15144406Y-13733266D01*
X15163454Y-13742790D01*
X15172977Y-13761838D01*
X15172977Y-13780885D01*
X15077739Y-13799933D01*
X15249168Y-13857076D02*
X15268216Y-13866600D01*
X15306311Y-13866600D01*
X15325358Y-13857076D01*
X15334882Y-13838028D01*
X15334882Y-13828504D01*
X15325358Y-13809457D01*
X15306311Y-13799933D01*
X15277739Y-13799933D01*
X15258692Y-13790409D01*
X15249168Y-13771361D01*
X15249168Y-13761838D01*
X15258692Y-13742790D01*
X15277739Y-13733266D01*
X15306311Y-13733266D01*
X15325358Y-13742790D01*
X15401549Y-13942790D02*
X15411073Y-13933266D01*
X15430120Y-13904695D01*
X15439644Y-13885647D01*
X15449168Y-13857076D01*
X15458692Y-13809457D01*
X15458692Y-13771361D01*
X15449168Y-13723742D01*
X15439644Y-13695171D01*
X15430120Y-13676123D01*
X15411073Y-13647552D01*
X15401549Y-13638028D01*
X15763454Y-13942790D02*
X15753930Y-13933266D01*
X15734882Y-13904695D01*
X15725358Y-13885647D01*
X15715835Y-13857076D01*
X15706311Y-13809457D01*
X15706311Y-13771361D01*
X15715835Y-13723742D01*
X15725358Y-13695171D01*
X15734882Y-13676123D01*
X15753930Y-13647552D01*
X15763454Y-13638028D01*
X15839644Y-13733266D02*
X15839644Y-13866600D01*
X15839644Y-13752314D02*
X15849168Y-13742790D01*
X15868216Y-13733266D01*
X15896787Y-13733266D01*
X15915835Y-13742790D01*
X15925358Y-13761838D01*
X15925358Y-13866600D01*
X16049168Y-13866600D02*
X16030120Y-13857076D01*
X16020596Y-13847552D01*
X16011073Y-13828504D01*
X16011073Y-13771361D01*
X16020596Y-13752314D01*
X16030120Y-13742790D01*
X16049168Y-13733266D01*
X16077739Y-13733266D01*
X16096787Y-13742790D01*
X16106311Y-13752314D01*
X16115835Y-13771361D01*
X16115835Y-13828504D01*
X16106311Y-13847552D01*
X16096787Y-13857076D01*
X16077739Y-13866600D01*
X16049168Y-13866600D01*
X16172977Y-13733266D02*
X16249168Y-13733266D01*
X16201549Y-13666600D02*
X16201549Y-13838028D01*
X16211073Y-13857076D01*
X16230120Y-13866600D01*
X16249168Y-13866600D01*
X16468216Y-13733266D02*
X16468216Y-13933266D01*
X16468216Y-13742790D02*
X16487263Y-13733266D01*
X16525358Y-13733266D01*
X16544406Y-13742790D01*
X16553930Y-13752314D01*
X16563454Y-13771361D01*
X16563454Y-13828504D01*
X16553930Y-13847552D01*
X16544406Y-13857076D01*
X16525358Y-13866600D01*
X16487263Y-13866600D01*
X16468216Y-13857076D01*
X16677739Y-13866600D02*
X16658692Y-13857076D01*
X16649168Y-13838028D01*
X16649168Y-13666600D01*
X16839644Y-13866600D02*
X16839644Y-13761838D01*
X16830120Y-13742790D01*
X16811073Y-13733266D01*
X16772977Y-13733266D01*
X16753930Y-13742790D01*
X16839644Y-13857076D02*
X16820597Y-13866600D01*
X16772977Y-13866600D01*
X16753930Y-13857076D01*
X16744406Y-13838028D01*
X16744406Y-13818981D01*
X16753930Y-13799933D01*
X16772977Y-13790409D01*
X16820597Y-13790409D01*
X16839644Y-13780885D01*
X16906311Y-13733266D02*
X16982501Y-13733266D01*
X16934882Y-13666600D02*
X16934882Y-13838028D01*
X16944406Y-13857076D01*
X16963454Y-13866600D01*
X16982501Y-13866600D01*
X17125358Y-13857076D02*
X17106311Y-13866600D01*
X17068216Y-13866600D01*
X17049168Y-13857076D01*
X17039644Y-13838028D01*
X17039644Y-13761838D01*
X17049168Y-13742790D01*
X17068216Y-13733266D01*
X17106311Y-13733266D01*
X17125358Y-13742790D01*
X17134882Y-13761838D01*
X17134882Y-13780885D01*
X17039644Y-13799933D01*
X17306311Y-13866600D02*
X17306311Y-13666600D01*
X17306311Y-13857076D02*
X17287263Y-13866600D01*
X17249168Y-13866600D01*
X17230120Y-13857076D01*
X17220597Y-13847552D01*
X17211073Y-13828504D01*
X17211073Y-13771361D01*
X17220597Y-13752314D01*
X17230120Y-13742790D01*
X17249168Y-13733266D01*
X17287263Y-13733266D01*
X17306311Y-13742790D01*
X17382501Y-13942790D02*
X17392025Y-13933266D01*
X17411073Y-13904695D01*
X17420597Y-13885647D01*
X17430120Y-13857076D01*
X17439644Y-13809457D01*
X17439644Y-13771361D01*
X17430120Y-13723742D01*
X17420597Y-13695171D01*
X17411073Y-13676123D01*
X17392025Y-13647552D01*
X17382501Y-13638028D01*
X10629644Y-14040123D02*
G75*
G03*
X10629644Y-14040123I-100000J0D01*
G01*
X10972978Y-13997266D02*
X10972978Y-14130600D01*
X10925358Y-13921076D02*
X10877739Y-14063933D01*
X11001549Y-14063933D01*
X11077739Y-14111552D02*
X11087263Y-14121076D01*
X11077739Y-14130600D01*
X11068216Y-14121076D01*
X11077739Y-14111552D01*
X11077739Y-14130600D01*
X11153930Y-13930600D02*
X11277739Y-13930600D01*
X11211073Y-14006790D01*
X11239644Y-14006790D01*
X11258692Y-14016314D01*
X11268216Y-14025838D01*
X11277739Y-14044885D01*
X11277739Y-14092504D01*
X11268216Y-14111552D01*
X11258692Y-14121076D01*
X11239644Y-14130600D01*
X11182501Y-14130600D01*
X11163454Y-14121076D01*
X11153930Y-14111552D01*
X11401549Y-13930600D02*
X11420596Y-13930600D01*
X11439644Y-13940123D01*
X11449168Y-13949647D01*
X11458692Y-13968695D01*
X11468216Y-14006790D01*
X11468216Y-14054409D01*
X11458692Y-14092504D01*
X11449168Y-14111552D01*
X11439644Y-14121076D01*
X11420596Y-14130600D01*
X11401549Y-14130600D01*
X11382501Y-14121076D01*
X11372977Y-14111552D01*
X11363454Y-14092504D01*
X11353930Y-14054409D01*
X11353930Y-14006790D01*
X11363454Y-13968695D01*
X11372977Y-13949647D01*
X11382501Y-13940123D01*
X11401549Y-13930600D01*
X11592025Y-13930600D02*
X11611073Y-13930600D01*
X11630120Y-13940123D01*
X11639644Y-13949647D01*
X11649168Y-13968695D01*
X11658692Y-14006790D01*
X11658692Y-14054409D01*
X11649168Y-14092504D01*
X11639644Y-14111552D01*
X11630120Y-14121076D01*
X11611073Y-14130600D01*
X11592025Y-14130600D01*
X11572977Y-14121076D01*
X11563454Y-14111552D01*
X11553930Y-14092504D01*
X11544406Y-14054409D01*
X11544406Y-14006790D01*
X11553930Y-13968695D01*
X11563454Y-13949647D01*
X11572977Y-13940123D01*
X11592025Y-13930600D01*
X11744406Y-14130600D02*
X11744406Y-13997266D01*
X11744406Y-14016314D02*
X11753930Y-14006790D01*
X11772977Y-13997266D01*
X11801549Y-13997266D01*
X11820596Y-14006790D01*
X11830120Y-14025838D01*
X11830120Y-14130600D01*
X11830120Y-14025838D02*
X11839644Y-14006790D01*
X11858692Y-13997266D01*
X11887263Y-13997266D01*
X11906311Y-14006790D01*
X11915835Y-14025838D01*
X11915835Y-14130600D01*
X12011073Y-14130600D02*
X12011073Y-13997266D01*
X12011073Y-14016314D02*
X12020596Y-14006790D01*
X12039644Y-13997266D01*
X12068216Y-13997266D01*
X12087263Y-14006790D01*
X12096787Y-14025838D01*
X12096787Y-14130600D01*
X12096787Y-14025838D02*
X12106311Y-14006790D01*
X12125358Y-13997266D01*
X12153930Y-13997266D01*
X12172977Y-14006790D01*
X12182501Y-14025838D01*
X12182501Y-14130600D01*
X12572977Y-13921076D02*
X12401549Y-14178219D01*
X12830120Y-13930600D02*
X12849168Y-13930600D01*
X12868216Y-13940123D01*
X12877739Y-13949647D01*
X12887263Y-13968695D01*
X12896787Y-14006790D01*
X12896787Y-14054409D01*
X12887263Y-14092504D01*
X12877739Y-14111552D01*
X12868216Y-14121076D01*
X12849168Y-14130600D01*
X12830120Y-14130600D01*
X12811073Y-14121076D01*
X12801549Y-14111552D01*
X12792025Y-14092504D01*
X12782501Y-14054409D01*
X12782501Y-14006790D01*
X12792025Y-13968695D01*
X12801549Y-13949647D01*
X12811073Y-13940123D01*
X12830120Y-13930600D01*
X12982501Y-14111552D02*
X12992025Y-14121076D01*
X12982501Y-14130600D01*
X12972977Y-14121076D01*
X12982501Y-14111552D01*
X12982501Y-14130600D01*
X13182501Y-14130600D02*
X13068216Y-14130600D01*
X13125358Y-14130600D02*
X13125358Y-13930600D01*
X13106311Y-13959171D01*
X13087263Y-13978219D01*
X13068216Y-13987742D01*
X13353930Y-13930600D02*
X13315835Y-13930600D01*
X13296787Y-13940123D01*
X13287263Y-13949647D01*
X13268216Y-13978219D01*
X13258692Y-14016314D01*
X13258692Y-14092504D01*
X13268216Y-14111552D01*
X13277739Y-14121076D01*
X13296787Y-14130600D01*
X13334882Y-14130600D01*
X13353930Y-14121076D01*
X13363454Y-14111552D01*
X13372977Y-14092504D01*
X13372977Y-14044885D01*
X13363454Y-14025838D01*
X13353930Y-14016314D01*
X13334882Y-14006790D01*
X13296787Y-14006790D01*
X13277739Y-14016314D01*
X13268216Y-14025838D01*
X13258692Y-14044885D01*
X13468216Y-14130600D02*
X13506311Y-14130600D01*
X13525358Y-14121076D01*
X13534882Y-14111552D01*
X13553930Y-14082981D01*
X13563454Y-14044885D01*
X13563454Y-13968695D01*
X13553930Y-13949647D01*
X13544406Y-13940123D01*
X13525358Y-13930600D01*
X13487263Y-13930600D01*
X13468216Y-13940123D01*
X13458692Y-13949647D01*
X13449168Y-13968695D01*
X13449168Y-14016314D01*
X13458692Y-14035361D01*
X13468216Y-14044885D01*
X13487263Y-14054409D01*
X13525358Y-14054409D01*
X13544406Y-14044885D01*
X13553930Y-14035361D01*
X13563454Y-14016314D01*
X13630120Y-13930600D02*
X13753930Y-13930600D01*
X13687263Y-14006790D01*
X13715835Y-14006790D01*
X13734882Y-14016314D01*
X13744406Y-14025838D01*
X13753930Y-14044885D01*
X13753930Y-14092504D01*
X13744406Y-14111552D01*
X13734882Y-14121076D01*
X13715835Y-14130600D01*
X13658692Y-14130600D01*
X13639644Y-14121076D01*
X13630120Y-14111552D01*
X13830120Y-13930600D02*
X13830120Y-13968695D01*
X13906311Y-13930600D02*
X13906311Y-13968695D01*
X14201549Y-14206790D02*
X14192025Y-14197266D01*
X14172977Y-14168695D01*
X14163454Y-14149647D01*
X14153930Y-14121076D01*
X14144406Y-14073457D01*
X14144406Y-14035361D01*
X14153930Y-13987742D01*
X14163454Y-13959171D01*
X14172977Y-13940123D01*
X14192025Y-13911552D01*
X14201549Y-13902028D01*
X14268216Y-13949647D02*
X14277739Y-13940123D01*
X14296787Y-13930600D01*
X14344406Y-13930600D01*
X14363454Y-13940123D01*
X14372977Y-13949647D01*
X14382501Y-13968695D01*
X14382501Y-13987742D01*
X14372977Y-14016314D01*
X14258692Y-14130600D01*
X14382501Y-14130600D01*
X14620596Y-14130600D02*
X14620596Y-13930600D01*
X14706311Y-14130600D02*
X14706311Y-14025838D01*
X14696787Y-14006790D01*
X14677739Y-13997266D01*
X14649168Y-13997266D01*
X14630120Y-14006790D01*
X14620596Y-14016314D01*
X14830120Y-14130600D02*
X14811073Y-14121076D01*
X14801549Y-14111552D01*
X14792025Y-14092504D01*
X14792025Y-14035361D01*
X14801549Y-14016314D01*
X14811073Y-14006790D01*
X14830120Y-13997266D01*
X14858692Y-13997266D01*
X14877739Y-14006790D01*
X14887263Y-14016314D01*
X14896787Y-14035361D01*
X14896787Y-14092504D01*
X14887263Y-14111552D01*
X14877739Y-14121076D01*
X14858692Y-14130600D01*
X14830120Y-14130600D01*
X15011073Y-14130600D02*
X14992025Y-14121076D01*
X14982501Y-14102028D01*
X14982501Y-13930600D01*
X15163454Y-14121076D02*
X15144406Y-14130600D01*
X15106311Y-14130600D01*
X15087263Y-14121076D01*
X15077739Y-14102028D01*
X15077739Y-14025838D01*
X15087263Y-14006790D01*
X15106311Y-13997266D01*
X15144406Y-13997266D01*
X15163454Y-14006790D01*
X15172977Y-14025838D01*
X15172977Y-14044885D01*
X15077739Y-14063933D01*
X15249168Y-14121076D02*
X15268216Y-14130600D01*
X15306311Y-14130600D01*
X15325358Y-14121076D01*
X15334882Y-14102028D01*
X15334882Y-14092504D01*
X15325358Y-14073457D01*
X15306311Y-14063933D01*
X15277739Y-14063933D01*
X15258692Y-14054409D01*
X15249168Y-14035361D01*
X15249168Y-14025838D01*
X15258692Y-14006790D01*
X15277739Y-13997266D01*
X15306311Y-13997266D01*
X15325358Y-14006790D01*
X15401549Y-14206790D02*
X15411073Y-14197266D01*
X15430120Y-14168695D01*
X15439644Y-14149647D01*
X15449168Y-14121076D01*
X15458692Y-14073457D01*
X15458692Y-14035361D01*
X15449168Y-13987742D01*
X15439644Y-13959171D01*
X15430120Y-13940123D01*
X15411073Y-13911552D01*
X15401549Y-13902028D01*
X15763454Y-14206790D02*
X15753930Y-14197266D01*
X15734882Y-14168695D01*
X15725358Y-14149647D01*
X15715835Y-14121076D01*
X15706311Y-14073457D01*
X15706311Y-14035361D01*
X15715835Y-13987742D01*
X15725358Y-13959171D01*
X15734882Y-13940123D01*
X15753930Y-13911552D01*
X15763454Y-13902028D01*
X15839644Y-13997266D02*
X15839644Y-14130600D01*
X15839644Y-14016314D02*
X15849168Y-14006790D01*
X15868216Y-13997266D01*
X15896787Y-13997266D01*
X15915835Y-14006790D01*
X15925358Y-14025838D01*
X15925358Y-14130600D01*
X16049168Y-14130600D02*
X16030120Y-14121076D01*
X16020596Y-14111552D01*
X16011073Y-14092504D01*
X16011073Y-14035361D01*
X16020596Y-14016314D01*
X16030120Y-14006790D01*
X16049168Y-13997266D01*
X16077739Y-13997266D01*
X16096787Y-14006790D01*
X16106311Y-14016314D01*
X16115835Y-14035361D01*
X16115835Y-14092504D01*
X16106311Y-14111552D01*
X16096787Y-14121076D01*
X16077739Y-14130600D01*
X16049168Y-14130600D01*
X16172977Y-13997266D02*
X16249168Y-13997266D01*
X16201549Y-13930600D02*
X16201549Y-14102028D01*
X16211073Y-14121076D01*
X16230120Y-14130600D01*
X16249168Y-14130600D01*
X16468216Y-13997266D02*
X16468216Y-14197266D01*
X16468216Y-14006790D02*
X16487263Y-13997266D01*
X16525358Y-13997266D01*
X16544406Y-14006790D01*
X16553930Y-14016314D01*
X16563454Y-14035361D01*
X16563454Y-14092504D01*
X16553930Y-14111552D01*
X16544406Y-14121076D01*
X16525358Y-14130600D01*
X16487263Y-14130600D01*
X16468216Y-14121076D01*
X16677739Y-14130600D02*
X16658692Y-14121076D01*
X16649168Y-14102028D01*
X16649168Y-13930600D01*
X16839644Y-14130600D02*
X16839644Y-14025838D01*
X16830120Y-14006790D01*
X16811073Y-13997266D01*
X16772977Y-13997266D01*
X16753930Y-14006790D01*
X16839644Y-14121076D02*
X16820597Y-14130600D01*
X16772977Y-14130600D01*
X16753930Y-14121076D01*
X16744406Y-14102028D01*
X16744406Y-14082981D01*
X16753930Y-14063933D01*
X16772977Y-14054409D01*
X16820597Y-14054409D01*
X16839644Y-14044885D01*
X16906311Y-13997266D02*
X16982501Y-13997266D01*
X16934882Y-13930600D02*
X16934882Y-14102028D01*
X16944406Y-14121076D01*
X16963454Y-14130600D01*
X16982501Y-14130600D01*
X17125358Y-14121076D02*
X17106311Y-14130600D01*
X17068216Y-14130600D01*
X17049168Y-14121076D01*
X17039644Y-14102028D01*
X17039644Y-14025838D01*
X17049168Y-14006790D01*
X17068216Y-13997266D01*
X17106311Y-13997266D01*
X17125358Y-14006790D01*
X17134882Y-14025838D01*
X17134882Y-14044885D01*
X17039644Y-14063933D01*
X17306311Y-14130600D02*
X17306311Y-13930600D01*
X17306311Y-14121076D02*
X17287263Y-14130600D01*
X17249168Y-14130600D01*
X17230120Y-14121076D01*
X17220597Y-14111552D01*
X17211073Y-14092504D01*
X17211073Y-14035361D01*
X17220597Y-14016314D01*
X17230120Y-14006790D01*
X17249168Y-13997266D01*
X17287263Y-13997266D01*
X17306311Y-14006790D01*
X17382501Y-14206790D02*
X17392025Y-14197266D01*
X17411073Y-14168695D01*
X17420597Y-14149647D01*
X17430120Y-14121076D01*
X17439644Y-14073457D01*
X17439644Y-14035361D01*
X17430120Y-13987742D01*
X17420597Y-13959171D01*
X17411073Y-13940123D01*
X17392025Y-13911552D01*
X17382501Y-13902028D01*
M02*
