M48
; DRILL file {KiCad (6.0.6)} date Wed Oct  5 22:34:10 2022
; FORMAT={-:-/ absolute / metric / decimal}
; #@! TF.CreationDate,2022-10-05T22:34:10-05:00
; #@! TF.GenerationSoftware,Kicad,Pcbnew,(6.0.6)
; #@! TF.FileFunction,Plated,1,2,PTH
FMAT,2
METRIC
; #@! TA.AperFunction,Plated,PTH,ViaDrill
T1C0.300
%
G90
G05
T1
X110.3Y-90.6
X110.7Y-122.5
X111.5Y-89.7
X111.6Y-88.3
X111.8Y-122.3
X112.9Y-119.7
X113.487Y-92.765
X113.5Y-125.1
X114.6Y-112.7
X115.4Y-124.0
X116.0Y-86.5
X116.1Y-92.1
X116.4Y-116.5
X116.5Y-96.8
X116.5Y-104.7
X116.6Y-88.5
X116.7Y-122.2
X117.8Y-110.1
X118.2Y-124.0
X118.5Y-116.5
X118.694Y-87.493
X118.7Y-107.6
X118.769Y-88.731
X118.8Y-100.1
X119.9Y-100.3
X119.9Y-102.2
X120.7Y-118.7
X121.0Y-74.6
X121.109Y-82.802
X121.2Y-112.7
X121.3Y-95.6
X121.4Y-120.6
X121.5Y-84.5
X121.6Y-87.6
X121.7Y-117.4
X121.719Y-82.35
X121.766Y-80.9
X121.9Y-105.4
X122.0Y-100.4
X122.1Y-113.6
X122.3Y-88.4
X122.357Y-109.6
X122.4Y-85.7
X122.4Y-125.4
X122.7Y-117.9
X122.834Y-108.1
X123.0Y-68.6
X123.1Y-105.4
X123.164Y-99.983
X123.5Y-98.8
X123.526Y-108.543
X123.6Y-111.3
X123.6Y-113.158
X123.6Y-127.3
X123.613Y-73.758
X123.9Y-71.8
X123.9Y-114.6
X124.1Y-66.1
X124.1Y-85.9
X124.1Y-109.766
X124.3Y-106.6
X124.4Y-102.8
X124.6Y-82.8
X124.62Y-100.909
X124.9Y-87.5
X124.9Y-90.5
X124.93Y-110.5
X125.4Y-73.2
X125.9Y-106.3
X125.9Y-127.4
X126.2Y-61.4
X126.4Y-103.5
X126.62Y-91.92
X127.0Y-60.3
X127.3Y-70.9
X127.3Y-73.8
X128.1Y-63.3
X128.7Y-128.8
X129.4Y-91.9
X129.5Y-109.7
X129.6Y-115.0
X129.7Y-104.8
X130.3Y-60.6
X130.7Y-95.8
X130.8Y-91.3
X131.3Y-77.4
X131.4Y-64.6
X131.7Y-60.7
X131.8Y-76.0
X132.0Y-109.6
X132.1Y-105.8
X132.1Y-122.6
X132.5Y-66.6
X132.6Y-98.3
X132.6Y-99.7
X132.7Y-101.1
X133.2Y-105.8
X133.4Y-126.5
X133.5Y-58.5
X133.6Y-91.3
X133.8Y-109.7
X133.9Y-68.0
X133.9Y-70.0
X133.9Y-81.1
X133.9Y-97.1
X133.9Y-102.3
X134.4Y-122.5
X134.6Y-115.0
X134.6Y-116.46
X135.3Y-58.2
X135.3Y-60.0
X135.3Y-97.1
X135.3Y-102.3
X135.525Y-64.072
X136.6Y-71.0
X136.6Y-109.7
X136.6Y-117.2
X136.7Y-91.3
X136.7Y-97.1
X136.7Y-102.3
X136.8Y-69.4
X136.8Y-76.5
X136.8Y-78.7
X136.804Y-64.826
X136.9Y-81.5
X137.0Y-105.7
X137.2Y-115.8
X137.3Y-64.1
X137.7Y-56.506
X138.0Y-98.3
X138.0Y-99.7
X138.0Y-101.1
X138.4Y-61.3
X138.4Y-72.2
X138.8Y-122.9
X139.1Y-104.6
X139.3Y-115.8
X139.5Y-70.6
X139.8Y-109.7
X139.9Y-91.3
X140.0Y-58.5
X140.0Y-64.5
X140.0Y-122.9
X140.3Y-103.6
X140.5Y-97.4
X141.6Y-126.6
X141.9Y-60.6
X141.9Y-102.2
X141.9Y-117.5
X142.0Y-75.8
X142.0Y-122.1
X142.1Y-109.7
X142.2Y-67.1
X142.2Y-77.5
X142.5Y-91.3
X142.557Y-92.6
X142.557Y-101.5
X143.2Y-91.8
X143.5Y-114.8
X143.7Y-127.6
X143.9Y-108.7
X144.1Y-94.7
X144.1Y-105.3
X145.6Y-66.3
X146.0Y-70.6
X146.2Y-125.7
X146.3Y-73.9
X146.8Y-62.9
X146.8Y-64.9
X146.9Y-92.3
X147.0Y-128.8
X147.1Y-105.4
X147.5Y-94.6
X147.593Y-60.164
X147.8Y-63.9
X147.8Y-106.1
X147.9Y-115.8
X148.3Y-60.8
X148.4Y-69.457
X148.6Y-71.593
X148.6Y-72.9
X148.8Y-64.9
X148.8Y-114.8
X149.0Y-91.0
X149.293Y-105.9
X149.3Y-93.1
X149.493Y-103.6
X149.493Y-104.4
X149.5Y-69.457
X149.594Y-89.9
X149.594Y-92.3
X149.7Y-101.7
X149.7Y-109.3
X149.7Y-112.0
X149.9Y-82.0
X150.1Y-77.4
X150.1Y-102.5
X150.1Y-113.8
X150.4Y-97.1
X150.9Y-70.3
X151.0Y-85.5
X151.1Y-116.1
X151.26Y-73.959
X151.26Y-100.681
X151.506Y-91.14
X151.506Y-91.9
X151.7Y-101.3
X151.793Y-74.5
X152.4Y-89.2
X152.4Y-112.7
X152.44Y-97.659
X153.194Y-103.2
X153.4Y-87.5
X153.629Y-84.371
X154.0Y-100.239
X154.0Y-102.2
X154.0Y-123.0
X154.1Y-85.7
X154.106Y-104.8
X154.2Y-87.4
X154.649Y-105.482
X155.0Y-96.8
X155.174Y-106.069
X155.7Y-92.0
X156.0Y-115.6
X156.5Y-109.8
X156.6Y-107.7
X157.5Y-86.906
X157.7Y-118.3
X158.7Y-97.3
X159.0Y-90.4
X159.4Y-125.2
X159.6Y-121.3
X160.5Y-116.9
X160.6Y-124.0
X161.571Y-87.071
X162.1Y-93.3
X164.4Y-89.3
T0
M30
